<svg width="1586" height="1040" viewBox="0 0 1586 1040" fill="none" xmlns="http://www.w3.org/2000/svg">
<g clip-path="url(#clip0_255_894)">
<mask id="mask0_255_894" style="mask-type:luminance" maskUnits="userSpaceOnUse" x="-1" y="-1" width="1665" height="1042">
<path d="M1663.36 -0.0981445H-1V1040.1H1663.36V-0.0981445Z" fill="white"/>
</mask>
<g mask="url(#mask0_255_894)">
<path d="M1585.89 77.614C1585.89 96.6143 1588 91.6143 1573.94 91.6143C1559.88 91.6143 1544.33 98.1143 1548.48 79.614C1548.48 74.3673 1559.88 70.114 1573.94 70.114C1586.47 70.114 1585.89 68.1142 1585.89 77.614Z" fill="#ECF0F1"/>
<path d="M1559 76.8921C1559 96.8652 1504.25 99.5835 1458.32 99.5835C1412.39 99.5835 1372.23 119.439 1375.15 63.4191C1375.15 43.446 1412.39 23 1458.32 23C1515.23 23.0001 1559 56.919 1559 76.8921Z" fill="#ECF0F1"/>
<path d="M1436.27 66.6136C1442.7 109.114 1408.21 88.963 1379.82 92.941C1351.43 96.919 1322.67 91.0132 1320.95 79.6143C1319.23 68.2153 1345.19 55.6398 1373.58 51.6618C1401.97 47.6838 1434.55 55.2147 1436.27 66.6136Z" fill="#ECF0F1"/>
<path d="M1328.22 75.6143C1342.24 109.114 1310.08 89.6143 1287.7 89.6143C1265.32 89.6143 1245.62 104.114 1247.18 75.6143C1247.18 69.263 1265.32 64.1143 1287.7 64.1143C1310.08 64.1143 1328.22 69.263 1328.22 75.6143Z" fill="#ECF0F1"/>
<path d="M1263.28 80.1143C1263.28 94.7498 1217.1 98.1143 1186.4 98.1143C1155.7 98.1143 1115.75 94.7498 1115.75 80.1143C1115.75 65.4787 1155.7 40.1143 1186.4 40.1143C1227.44 40.1143 1263.28 65.4787 1263.28 80.1143Z" fill="#ECF0F1"/>
<ellipse cx="53.9977" cy="23.0133" rx="53.9977" ry="23.0133" transform="matrix(0.993229 -0.116175 0.125267 0.992123 1019.24 74.5557)" fill="#ECF0F1"/>
<ellipse cx="988.996" cy="87.6143" rx="43.1175" ry="7.5" fill="#ECF0F1"/>
<path d="M963.54 91.6143C963.54 105.145 933.552 109.114 899.124 109.114C864.695 109.114 836.785 98.1452 836.785 84.6143C836.785 71.0833 864.695 60.1143 899.124 60.1143C933.552 60.1143 963.54 78.0833 963.54 91.6143Z" fill="#ECF0F1"/>
<path d="M861.722 82.1143C861.722 103.653 830.789 121.114 792.631 121.114C754.472 121.114 719.902 103.653 719.902 82.1143C719.902 60.5752 756.55 41.1143 794.709 41.1143C832.867 41.1143 861.722 60.5752 861.722 82.1143Z" fill="#ECF0F1"/>
<path d="M745.353 101.614C745.353 117.907 722.094 131.114 693.404 131.114C664.713 131.114 641.455 117.907 641.455 101.614C641.455 78.1143 664.713 71.1143 693.404 71.1143C722.094 71.1143 745.353 74.1143 745.353 101.614Z" fill="#ECF0F1"/>
<path d="M372.882 90.1143C369.764 100.614 332.597 127.114 294.439 127.114C256.28 127.114 225.867 101.614 225.867 89.6143C217.556 49.1143 249.763 9.11513 294.958 11.1149C341.712 8.61431 372.882 47.3122 372.882 90.1143Z" fill="#ECF0F1"/>
<path d="M474.7 107.114C474.7 119.614 430.26 126.614 392.102 126.614C353.943 126.614 330.802 132.614 327.686 106.614C327.686 68.6143 351.582 26.1151 396.777 28.1149C443.531 25.6143 474.7 64.3122 474.7 107.114Z" fill="#ECF0F1"/>
<path d="M573.401 130.115C572.221 137.614 543.249 129.615 504.828 129.615C466.407 129.615 431.061 130.115 425.375 129.615C425.374 78.1146 449.436 49.1155 494.942 51.1153C542.017 48.6147 581.193 80.6143 573.401 130.115Z" fill="#ECF0F1"/>
<path d="M715.482 112.355C714.463 122.806 665.59 112.355 617.972 112.355C570.355 112.355 522.398 121.559 522.398 112.355C517.878 44.2848 552.218 7.5852 608.617 10.1879C666.96 6.93338 721.94 46.1543 715.482 112.355Z" fill="#ECF0F1"/>
<path d="M203.548 97.7328C203.548 125 174.401 125 123.991 125C73.5823 125 21 116.108 21 97.7328C21 49.2793 61.8647 10 112.274 10C162.683 10 209.098 51.4953 203.548 97.7328Z" fill="#ECF0F1"/>
<path d="M99 101.242C99 126.911 57.5831 126.911 6.49282 126.911C-3.71808 126.911 -0.528365 130.426 -0.528365 93.2958C-0.528365 56.1655 -3.7164 33.3997 6.49282 34.0121C57.4833 37.0706 99 64.1121 99 101.242Z" fill="#ECF0F1"/>
<path d="M308 100.077C308 138.573 265.243 126.057 212.5 126.057C159.757 126.057 117 138.573 117 100.077C117 61.5817 159.757 30.3747 212.5 30.3747C278.362 25.9393 308 61.5817 308 100.077Z" fill="#ECF0F1"/>
<rect x="-1" y="89" width="1587" height="141" fill="#ECF0F1"/>
</g>
</g>
<defs>
<clipPath id="clip0_255_894">
<rect width="1586" height="1040" fill="white"/>
</clipPath>
</defs>
</svg>
