<svg width="1506" height="922" viewBox="0 0 1506 922" fill="none" xmlns="http://www.w3.org/2000/svg">
<g clip-path="url(#clip0_249_758)">
<rect width="1506" height="922" fill="#B6D3D9"/>
<mask id="mask0_249_758" style="mask-type:luminance" maskUnits="userSpaceOnUse" x="0" y="-1" width="1585" height="924">
<path d="M1584.44 -0.0869141H0V922.086H1584.44V-0.0869141Z" fill="white"/>
</mask>
<g mask="url(#mask0_249_758)">
<path d="M1524.32 127.614C1524.32 146.614 1526.35 141.614 1512.82 141.614C1499.29 141.614 1484.32 148.114 1488.32 129.614C1488.32 124.367 1499.29 120.114 1512.82 120.114C1524.88 120.114 1524.32 118.114 1524.32 127.614Z" fill="#ECF0F1"/>
<path d="M1498.32 129.114C1498.32 143.198 1460.8 145.114 1429.32 145.114C1397.84 145.114 1370.32 159.114 1372.32 119.614C1372.32 105.531 1397.84 91.1143 1429.32 91.1143C1468.32 91.1143 1498.32 115.031 1498.32 129.114Z" fill="#ECF0F1"/>
<path d="M1380.32 116.614C1386.51 159.115 1353.31 138.963 1325.99 142.941C1298.66 146.919 1270.98 141.014 1269.32 129.615C1267.66 118.216 1292.65 105.64 1319.98 101.662C1347.3 97.6843 1378.66 105.215 1380.32 116.614Z" fill="#ECF0F1"/>
<path d="M1276.32 125.614C1289.82 159.114 1258.86 139.614 1237.32 139.614C1215.78 139.614 1196.82 154.114 1198.32 125.614C1198.32 119.263 1215.78 114.114 1237.32 114.114C1258.86 114.114 1276.32 119.263 1276.32 125.614Z" fill="#ECF0F1"/>
<path d="M1213.82 130.114C1213.82 144.75 1169.37 148.114 1139.82 148.114C1110.28 148.114 1071.82 144.75 1071.82 130.114C1071.82 115.479 1110.28 90.1143 1139.82 90.1143C1179.32 90.1143 1213.82 115.479 1213.82 130.114Z" fill="#ECF0F1"/>
<ellipse cx="1033.32" cy="141.115" rx="52" ry="23" transform="rotate(-6.92893 1033.32 141.115)" fill="#ECF0F1"/>
<ellipse cx="949.824" cy="137.614" rx="41.5" ry="7.5" fill="#ECF0F1"/>
<path d="M925.324 141.614C925.324 155.145 896.461 159.114 863.324 159.114C830.187 159.114 803.324 148.145 803.324 134.614C803.324 121.083 830.187 110.114 863.324 110.114C896.461 110.114 925.324 128.083 925.324 141.614Z" fill="#ECF0F1"/>
<path d="M827.324 132.114C827.324 153.653 797.551 171.114 760.824 171.114C724.097 171.114 690.824 153.653 690.824 132.114C690.824 110.575 726.097 91.1143 762.824 91.1143C799.551 91.1143 827.324 110.575 827.324 132.114Z" fill="#ECF0F1"/>
<path d="M715.324 151.614C715.324 167.907 692.938 181.114 665.324 181.114C637.71 181.114 615.324 167.907 615.324 151.614C615.324 128.114 637.71 121.114 665.324 121.114C692.938 121.114 715.324 124.114 715.324 151.614Z" fill="#ECF0F1"/>
<path d="M356.823 140.114C353.823 150.614 318.05 177.114 281.323 177.114C244.596 177.114 215.323 151.614 215.323 139.614C207.324 99.1143 238.323 59.1151 281.823 61.1149C326.823 58.6143 356.823 97.3122 356.823 140.114Z" fill="#ECF0F1"/>
<path d="M454.824 157.114C454.824 169.614 412.051 176.614 375.324 176.614C338.597 176.614 316.324 182.614 313.324 156.614C313.325 118.614 336.324 76.1151 379.824 78.1149C424.824 75.6143 454.824 114.312 454.824 157.114Z" fill="#ECF0F1"/>
<path d="M549.823 180.114C548.687 187.614 520.802 179.614 483.822 179.614C446.843 179.614 412.822 180.114 407.35 179.614C407.349 128.114 430.508 99.115 474.307 101.115C519.616 98.6142 557.322 130.614 549.823 180.114Z" fill="#ECF0F1"/>
<path d="M649.823 163.229C649.034 171.614 611.193 163.229 574.324 163.229C537.455 163.229 500.323 170.614 500.323 163.229C496.824 108.614 523.412 79.169 567.081 81.2572C612.254 78.646 654.823 110.114 649.823 163.229Z" fill="#ECF0F1"/>
<path d="M166.324 152.115C166.324 175.114 142.693 175.114 101.824 175.114C60.9551 175.114 18.3242 167.614 18.3242 152.115C18.3242 111.246 51.4551 78.1147 92.3242 78.1147C133.193 78.1147 170.824 113.115 166.324 152.115Z" fill="#ECF0F1"/>
<path d="M75.3234 156.115C75.3234 177.114 42.8641 177.114 2.82347 177.114C-5.17905 177.114 -2.6792 179.99 -2.6792 149.614C-2.6792 119.238 -5.17773 100.614 2.82347 101.115C42.7859 103.617 75.3234 125.739 75.3234 156.115Z" fill="#ECF0F1"/>
<path d="M255.324 156.115C255.324 186.491 222.865 176.614 182.824 176.614C142.784 176.614 110.324 186.491 110.324 156.115C110.324 125.739 142.784 101.115 182.824 101.115C232.824 97.6152 255.324 125.739 255.324 156.115Z" fill="#ECF0F1"/>
<rect x="-2.67773" y="139.114" width="1527" height="44" fill="#ECF0F1"/>
</g>
</g>
<defs>
<clipPath id="clip0_249_758">
<rect width="1506" height="922" fill="white"/>
</clipPath>
</defs>
</svg>
