<svg width="1506" height="922" viewBox="0 0 1506 922" fill="none" xmlns="http://www.w3.org/2000/svg">
<g clip-path="url(#clip0_245_813)">
<mask id="mask0_245_813" style="mask-type:luminance" maskUnits="userSpaceOnUse" x="24" y="-8" width="1588" height="923">
<path d="M1611.03 -8H24V914.4H1611.03V-8Z" fill="white"/>
</mask>
<g mask="url(#mask0_245_813)">
<rect x="543.062" y="376.967" width="118.165" height="293.033" fill="#0C8DB6"/>
<rect x="555.34" y="340.99" width="105.888" height="35.9773" fill="#0C8DB6"/>
<rect x="568.641" y="293.02" width="81.8456" height="47.9697" fill="#0C8DB6"/>
<rect x="580.918" y="274.249" width="53.7112" height="18.7708" fill="#0C8DB6"/>
<path d="M622.351 249.743V274.249H592.17L622.351 249.743Z" fill="#0C8DB6"/>
<rect x="661.227" y="496.892" width="75.1957" height="173.108" fill="#0C8DB6"/>
<rect x="709.824" y="451.529" width="26.5998" height="45.3627" fill="#0C8DB6"/>
<rect x="715.449" y="436.408" width="7.67303" height="15.1209" fill="#0C8DB6"/>
<rect x="400.365" y="334.709" width="70.905" height="335.291" fill="#0C8DB6"/>
<path d="M471.271 434.66L529.768 467.562V670H471.271V434.66Z" fill="#0C8DB6"/>
<rect x="410.115" y="325.623" width="46.9745" height="9.08648" fill="#0C8DB6"/>
<rect x="101.707" y="422.678" width="88.6312" height="247.322" fill="#0C8DB6"/>
<path d="M131.844 444.012H146.025" stroke="#C5D9EE" stroke-width="8" stroke-linecap="round"/>
<path d="M157.549 444.012H175.275" stroke="#C5D9EE" stroke-width="8" stroke-linecap="round"/>
<path d="M131.844 472.458H146.025" stroke="#C5D9EE" stroke-width="8" stroke-linecap="round"/>
<path d="M157.549 472.458H175.275" stroke="#C5D9EE" stroke-width="8" stroke-linecap="round"/>
<path d="M131.844 500.015H146.025" stroke="#C5D9EE" stroke-width="8" stroke-linecap="round"/>
<path d="M157.549 500.015H175.275" stroke="#C5D9EE" stroke-width="8" stroke-linecap="round"/>
<path d="M131.844 527.572H146.025" stroke="#C5D9EE" stroke-width="8" stroke-linecap="round"/>
<path d="M157.549 527.572H175.275" stroke="#C5D9EE" stroke-width="8" stroke-linecap="round"/>
<path d="M131.844 556.019H146.025" stroke="#C5D9EE" stroke-width="8" stroke-linecap="round"/>
<path d="M157.549 556.019H175.275" stroke="#C5D9EE" stroke-width="8" stroke-linecap="round"/>
<path d="M131.844 585.353H146.025" stroke="#C5D9EE" stroke-width="8" stroke-linecap="round"/>
<path d="M157.549 585.353H175.275" stroke="#C5D9EE" stroke-width="8" stroke-linecap="round"/>
<path d="M131.844 616.465H146.025" stroke="#C5D9EE" stroke-width="8" stroke-linecap="round"/>
<path d="M157.549 616.465H175.275" stroke="#C5D9EE" stroke-width="8" stroke-linecap="round"/>
<path d="M131.844 645.801H146.025" stroke="#C5D9EE" stroke-width="8" stroke-linecap="round"/>
<path d="M157.549 645.801H175.275" stroke="#C5D9EE" stroke-width="8" stroke-linecap="round"/>
<line x1="93.957" y1="431.567" x2="93.957" y2="536.462" stroke="#0C8DB6" stroke-width="4"/>
<line x1="91.957" y1="432.234" x2="101.706" y2="432.234" stroke="#0C8DB6" stroke-width="4"/>
<line x1="93.7285" y1="445.291" x2="101.705" y2="445.291" stroke="#0C8DB6"/>
<line x1="93.7285" y1="458.625" x2="101.705" y2="458.625" stroke="#0C8DB6"/>
<line x1="93.7285" y1="473.736" x2="101.705" y2="473.736" stroke="#0C8DB6"/>
<line x1="93.7285" y1="487.959" x2="101.705" y2="487.959" stroke="#0C8DB6"/>
<line x1="93.7285" y1="501.293" x2="101.705" y2="501.293" stroke="#0C8DB6"/>
<line x1="93.7285" y1="516.405" x2="101.705" y2="516.405" stroke="#0C8DB6"/>
<line x1="93.7285" y1="526.184" x2="101.705" y2="526.184" stroke="#0C8DB6"/>
<rect width="79.6019" height="150" transform="matrix(-1 0 0 1 359.539 436)" fill="#0C8DB6"/>
<rect width="79.6019" height="150" transform="matrix(-1 0 0 1 409.92 487)" fill="#0C8DB6"/>
<rect width="75.5714" height="47" transform="matrix(-1 0 0 1 279.938 539)" fill="#0C8DB6"/>
<rect width="2.65894" height="5.54243" transform="matrix(-1 0 0 1 269.654 533.363)" fill="#0C8DB6"/>
<rect width="9.74943" height="9.23738" transform="matrix(-1 0 0 1 242.18 529.668)" fill="#0C8DB6"/>
<rect width="2.65894" height="5.54243" transform="matrix(-1 0 0 1 235.088 525.049)" fill="#0C8DB6"/>
<line y1="-0.5" x2="7.3899" y2="-0.5" transform="matrix(0 -1 -1 0 241.291 530.592)" stroke="#0C8DB6"/>
<rect width="150.135" height="85" transform="matrix(-1 0 0 1 340.395 586)" fill="#0C8DB6"/>
<rect width="150.135" height="132" transform="matrix(-1 0 0 1 410.928 539)" fill="#0C8DB6"/>
<line y1="-2" x2="78.6938" y2="-2" transform="matrix(0.999992 0.00408711 0.0059918 -0.999982 280.291 426.152)" stroke="#0C8DB6" stroke-width="4"/>
<line y1="-2" x2="10.1611" y2="-2" transform="matrix(0 1 1 0 284.318 426.407)" stroke="#0C8DB6" stroke-width="4"/>
<line y1="-2" x2="10.1611" y2="-2" transform="matrix(0 1 1 0 359.539 426.406)" stroke="#0C8DB6" stroke-width="4"/>
<line y1="-0.5" x2="8.31364" y2="-0.5" transform="matrix(0 1 1 0 296.752 428.254)" stroke="#0C8DB6"/>
<line y1="-0.5" x2="8.31364" y2="-0.5" transform="matrix(0 1 1 0 311.104 428.254)" stroke="#0C8DB6"/>
<line y1="-0.5" x2="8.31364" y2="-0.5" transform="matrix(0 1 1 0 327.367 428.254)" stroke="#0C8DB6"/>
<line y1="-0.5" x2="8.31364" y2="-0.5" transform="matrix(0 1 1 0 342.676 428.254)" stroke="#0C8DB6"/>
<rect x="745.143" y="386.502" width="81.5407" height="281.497" fill="#0C8DB6"/>
<rect x="736.281" y="511.814" width="10.6357" height="156.186" fill="#0C8DB6"/>
<rect x="827.074" y="496" width="13.099" height="172" fill="#0C8DB6"/>
<rect x="802.754" y="403.756" width="16.8399" height="9.98862" rx="2" fill="#C5D9EE"/>
<rect x="802.754" y="423.733" width="16.8399" height="9.98862" rx="2" fill="#C5D9EE"/>
<rect x="802.754" y="445.526" width="16.8399" height="9.98862" rx="2" fill="#C5D9EE"/>
<rect x="802.754" y="465.503" width="16.8399" height="9.98862" rx="2" fill="#C5D9EE"/>
<rect x="802.754" y="487.297" width="16.8399" height="9.98862" rx="2" fill="#C5D9EE"/>
<line x1="756.277" y1="408.296" x2="756.277" y2="513.63" stroke="#C5D9EE"/>
<line x1="767.801" y1="408.296" x2="767.801" y2="513.63" stroke="#C5D9EE"/>
<line x1="759.822" y1="408.296" x2="759.822" y2="513.63" stroke="#C5D9EE"/>
<line x1="763.367" y1="408.296" x2="763.367" y2="513.63" stroke="#C5D9EE"/>
<rect x="863.021" y="435.483" width="86.8586" height="140.591" fill="#0C8DB6"/>
<rect x="857.305" y="495" width="6.04571" height="81" fill="#0C8DB6"/>
<rect x="859.477" y="435.483" width="4.43156" height="46.8638" fill="#0C8DB6"/>
<rect x="863.021" y="414.756" width="86.8586" height="20.7282" fill="#0C8DB6"/>
<rect x="854.158" y="408.447" width="95.7217" height="6.30858" fill="#0C8DB6"/>
<rect x="859.477" y="366.99" width="90.4038" height="41.4564" fill="#0C8DB6"/>
<rect x="863.021" y="352.571" width="86.8586" height="14.4196" fill="#0C8DB6"/>
<rect x="871.887" y="346.262" width="77.9955" height="7.20981" fill="#0C8DB6"/>
<rect x="849.727" y="330.041" width="100.153" height="16.2221" fill="#0C8DB6"/>
<rect x="844.41" y="325.534" width="105.471" height="4.50613" fill="#0C8DB6"/>
<rect x="902.02" y="314.72" width="47.8609" height="11.7159" fill="#0C8DB6"/>
<rect x="919.746" y="298.498" width="7.97681" height="16.2221" fill="#0C8DB6"/>
<rect x="934.814" y="298.498" width="6.20419" height="17.1233" fill="#0C8DB6"/>
<path d="M927.723 287.683V298.497H919.746L927.723 287.683Z" fill="#0C8DB6"/>
<path d="M876.317 421.187L876.317 450.026H843.523L876.317 421.187Z" fill="#0C8DB6"/>
<rect x="832.113" y="516" width="117.891" height="152" fill="#0C8DB6"/>
<line x1="442.141" y1="298.361" x2="442.141" y2="322.183" stroke="#0C8DB6" stroke-width="2"/>
<line y1="-0.5" x2="33.6181" y2="-0.5" transform="matrix(0.94911 -0.314945 0.317515 0.948253 425.186 304.537)" stroke="#0C8DB6"/>
<line y1="-0.5" x2="15.9561" y2="-0.5" transform="matrix(0.833204 0.552966 -0.556435 0.830891 419.869 301.008)" stroke="#0C8DB6"/>
<line y1="-0.5" x2="15.9561" y2="-0.5" transform="matrix(0.833204 0.552966 -0.556435 0.830891 422.527 299.243)" stroke="#0C8DB6"/>
<line y1="-0.5" x2="15.9561" y2="-0.5" transform="matrix(0.833204 0.552966 -0.556435 0.830891 425.188 297.479)" stroke="#0C8DB6"/>
<line y1="-0.5" x2="15.9561" y2="-0.5" transform="matrix(0.833204 0.552966 -0.556435 0.830891 427.848 295.714)" stroke="#0C8DB6"/>
<line y1="-0.5" x2="18.1031" y2="-0.5" transform="matrix(0.831014 0.557876 -0.560335 0.827173 436.709 293.065)" stroke="#0C8DB6"/>
<line y1="-0.5" x2="16.2867" y2="-0.5" transform="matrix(0.837916 0.547455 -0.549924 0.83413 439.367 292.183)" stroke="#0C8DB6"/>
<line y1="-0.5" x2="14.9639" y2="-0.5" transform="matrix(0.818747 0.575725 -0.578159 0.814817 442.025 290.418)" stroke="#0C8DB6"/>
<line y1="-0.5" x2="13.1436" y2="-0.5" transform="matrix(0.825921 0.565387 -0.567837 0.822042 444.684 289.536)" stroke="#0C8DB6"/>
<rect width="79.7681" height="302.635" transform="matrix(-1 0 0 1 1046.49 357.386)" fill="#0C8DB6"/>
<rect width="69.1323" height="7.05855" transform="matrix(-1 0 0 1 1035.86 350.328)" fill="#0C8DB6"/>
<rect width="20.3852" height="5.29391" transform="matrix(-1 0 0 1 1024.33 345.034)" fill="#0C8DB6"/>
<rect width="25.7031" height="108.525" rx="12.8515" transform="matrix(-1 0 0 1 992.426 268.272)" fill="#0C8DB6"/>
<rect width="12.4084" height="6.17623" transform="matrix(-1 0 0 1 985.334 265.625)" fill="#0C8DB6"/>
<rect width="7.0905" height="4.4116" transform="matrix(-1 0 0 1 982.676 262.978)" fill="#0C8DB6"/>
<line y1="-0.5" x2="5.29391" y2="-0.5" transform="matrix(0 1 1 0 980.018 258.566)" stroke="#C5D9EE"/>
<path d="M993.311 280.625H964.949" stroke="#C5D9EE" stroke-width="6" stroke-linecap="round"/>
<path d="M993.311 294.741H964.949" stroke="#C5D9EE" stroke-width="6" stroke-linecap="round"/>
<path d="M993.311 308.858H964.949" stroke="#C5D9EE" stroke-width="6" stroke-linecap="round"/>
<path d="M993.311 322.976H964.949" stroke="#C5D9EE" stroke-width="6" stroke-linecap="round"/>
<path d="M993.311 337.093H964.949" stroke="#C5D9EE" stroke-width="6" stroke-linecap="round"/>
<rect width="16.8399" height="26.4696" rx="8.41997" transform="matrix(-1 0 0 1 1028.76 369.739)" fill="#C5D9EE"/>
<rect width="16.8399" height="26.4696" rx="8.41997" transform="matrix(-1 0 0 1 1028.76 409.443)" fill="#C5D9EE"/>
<rect width="16.8399" height="26.4696" rx="8.41997" transform="matrix(-1 0 0 1 1028.76 450.03)" fill="#C5D9EE"/>
<line y1="-0.5" x2="24.7049" y2="-0.5" transform="matrix(0 1 1 0 997.74 369.739)" stroke="#C5D9EE"/>
<line y1="-0.5" x2="12.4084" y2="-0.5" transform="matrix(-1 0 0 1 1010.15 394.443)" stroke="#C5D9EE"/>
<line y1="-0.5" x2="12.4084" y2="-0.5" transform="matrix(-1 0 0 1 1010.15 370.621)" stroke="#C5D9EE"/>
<line y1="-0.5" x2="24.7049" y2="-0.5" transform="matrix(0 1 1 0 997.74 409.443)" stroke="#C5D9EE"/>
<line y1="-0.5" x2="12.4084" y2="-0.5" transform="matrix(-1 0 0 1 1010.15 434.148)" stroke="#C5D9EE"/>
<line y1="-0.5" x2="12.4084" y2="-0.5" transform="matrix(-1 0 0 1 1010.15 410.325)" stroke="#C5D9EE"/>
<line y1="-0.5" x2="24.7049" y2="-0.5" transform="matrix(0 1 1 0 997.74 451.794)" stroke="#C5D9EE"/>
<line y1="-0.5" x2="12.4084" y2="-0.5" transform="matrix(-1 0 0 1 1010.15 476.499)" stroke="#C5D9EE"/>
<line y1="-0.5" x2="12.4084" y2="-0.5" transform="matrix(-1 0 0 1 1010.15 452.677)" stroke="#C5D9EE"/>
<path d="M1100.78 273.566C1100.78 272.461 1099.89 271.566 1098.78 271.566C1097.68 271.566 1096.78 272.461 1096.78 273.566H1100.78ZM1096.78 273.566V318.478H1100.78V273.566H1096.78Z" fill="#0C8DB6"/>
<rect x="1102.4" y="281.65" width="41.602" height="100.604" rx="10" fill="#0C8DB6"/>
<rect x="1140.38" y="310.394" width="8.13953" height="31.4388" rx="4.06977" fill="#0C8DB6"/>
<rect x="1048.14" y="305.004" width="95.8656" height="361.995" fill="#0C8DB6"/>
<rect x="942.324" y="575.378" width="378.036" height="91.6216" fill="#0C8DB6"/>
<rect x="1157.91" y="416.529" width="60" height="243" fill="#0C8DB6"/>
<line x1="1187.07" y1="411.112" x2="1187.07" y2="386.092" stroke="#0C8DB6" stroke-width="4"/>
<rect x="1165.57" y="411.103" width="43" height="10" fill="#0C8DB6"/>
<rect x="1172.57" y="404.103" width="32" height="7" fill="#0C8DB6"/>
<mask id="mask1_245_813" style="mask-type:alpha" maskUnits="userSpaceOnUse" x="1163" y="359" width="44" height="46">
<rect x="1163.57" y="374.186" width="23" height="39.3394" transform="rotate(-38.7219 1163.57 374.186)" fill="#D9D9D9"/>
</mask>
<g mask="url(#mask1_245_813)">
<ellipse cx="1193.07" cy="376.103" rx="15.5" ry="13" fill="#0C8DB6"/>
<path d="M1182.12 363.846L1203.12 389.846" stroke="#C5D9EE" stroke-width="4" stroke-linecap="round"/>
</g>
<rect x="1240.77" y="402.016" width="79.5865" height="173.363" fill="#0C8DB6"/>
<rect x="1295.04" y="411.896" width="19.8966" height="9.88076" fill="#C5D9EE"/>
<rect x="1295.04" y="411.896" width="19.8966" height="9.88076" fill="#C5D9EE"/>
<rect x="1295.04" y="432.556" width="19.8966" height="9.88076" fill="#C5D9EE"/>
<rect x="1295.04" y="432.556" width="19.8966" height="9.88076" fill="#C5D9EE"/>
<rect x="1295.04" y="452.317" width="19.8966" height="9.88076" fill="#C5D9EE"/>
<rect x="1295.04" y="452.317" width="19.8966" height="9.88076" fill="#C5D9EE"/>
<rect x="1295.04" y="473.875" width="19.8966" height="9.88076" fill="#C5D9EE"/>
<rect x="1295.04" y="473.875" width="19.8966" height="9.88076" fill="#C5D9EE"/>
<line x1="1245.79" y1="409.6" x2="1277.35" y2="409.6" stroke="#C5D9EE" stroke-linecap="round"/>
<line x1="1245.79" y1="416.786" x2="1277.35" y2="416.786" stroke="#C5D9EE" stroke-linecap="round"/>
<line x1="1245.79" y1="423.074" x2="1277.35" y2="423.074" stroke="#C5D9EE" stroke-linecap="round"/>
<line x1="1245.79" y1="429.361" x2="1277.35" y2="429.361" stroke="#C5D9EE" stroke-linecap="round"/>
<line x1="1245.79" y1="435.649" x2="1277.35" y2="435.649" stroke="#C5D9EE" stroke-linecap="round"/>
<line x1="1245.79" y1="441.937" x2="1277.35" y2="441.937" stroke="#C5D9EE" stroke-linecap="round"/>
<line x1="1245.79" y1="449.123" x2="1277.35" y2="449.123" stroke="#C5D9EE" stroke-linecap="round"/>
<line x1="1245.79" y1="455.411" x2="1277.35" y2="455.411" stroke="#C5D9EE" stroke-linecap="round"/>
<line x1="1245.25" y1="571.287" x2="1245.25" y2="464.493" stroke="#C5D9EE" stroke-linecap="round"/>
<line x1="1249.77" y1="571.287" x2="1249.77" y2="464.493" stroke="#C5D9EE" stroke-linecap="round"/>
<line x1="1254.29" y1="571.287" x2="1254.29" y2="464.493" stroke="#C5D9EE" stroke-linecap="round"/>
<line x1="1258.81" y1="571.287" x2="1258.81" y2="464.493" stroke="#C5D9EE" stroke-linecap="round"/>
<line x1="1263.33" y1="571.287" x2="1263.33" y2="464.493" stroke="#C5D9EE" stroke-linecap="round"/>
<line x1="1267.86" y1="571.287" x2="1267.86" y2="464.493" stroke="#C5D9EE" stroke-linecap="round"/>
<line x1="1272.38" y1="571.287" x2="1272.38" y2="464.493" stroke="#C5D9EE" stroke-linecap="round"/>
<line x1="1276.9" y1="571.287" x2="1276.9" y2="464.493" stroke="#C5D9EE" stroke-linecap="round"/>
<line x1="1281.42" y1="571.287" x2="1281.42" y2="464.493" stroke="#C5D9EE" stroke-linecap="round"/>
<rect x="18" y="484" width="71.8478" height="187" fill="#0C8DB6"/>
<rect x="66.7637" y="494.141" width="17.88" height="10.3846" fill="#C5D9EE"/>
<rect x="66.7637" y="494.141" width="17.88" height="10.3846" fill="#C5D9EE"/>
<rect x="66.7637" y="515.854" width="17.88" height="10.3846" fill="#C5D9EE"/>
<rect x="66.7637" y="515.854" width="17.88" height="10.3846" fill="#C5D9EE"/>
<rect x="66.7637" y="536.624" width="17.88" height="10.3846" fill="#C5D9EE"/>
<rect x="66.7637" y="536.624" width="17.88" height="10.3846" fill="#C5D9EE"/>
<rect x="66.7637" y="559.281" width="17.88" height="10.3846" fill="#C5D9EE"/>
<rect x="66.7637" y="559.281" width="17.88" height="10.3846" fill="#C5D9EE"/>
<line x1="30.7578" y1="491.753" x2="59.016" y2="491.753" stroke="#C5D9EE" stroke-linecap="round"/>
<line x1="30.7578" y1="499.306" x2="59.016" y2="499.306" stroke="#C5D9EE" stroke-linecap="round"/>
<line x1="30.7578" y1="505.914" x2="59.016" y2="505.914" stroke="#C5D9EE" stroke-linecap="round"/>
<line x1="30.7578" y1="512.522" x2="59.016" y2="512.522" stroke="#C5D9EE" stroke-linecap="round"/>
<line x1="30.7578" y1="519.131" x2="59.016" y2="519.131" stroke="#C5D9EE" stroke-linecap="round"/>
<line x1="30.7578" y1="525.739" x2="59.016" y2="525.739" stroke="#C5D9EE" stroke-linecap="round"/>
<line x1="30.7578" y1="533.292" x2="59.016" y2="533.292" stroke="#C5D9EE" stroke-linecap="round"/>
<line x1="30.7578" y1="539.9" x2="59.016" y2="539.9" stroke="#C5D9EE" stroke-linecap="round"/>
<line x1="29.2539" y1="661.686" x2="29.2539" y2="549.395" stroke="#C5D9EE" stroke-linecap="round"/>
<line x1="33.3145" y1="661.686" x2="33.3145" y2="549.395" stroke="#C5D9EE" stroke-linecap="round"/>
<line x1="37.3828" y1="661.686" x2="37.3828" y2="549.395" stroke="#C5D9EE" stroke-linecap="round"/>
<line x1="41.4453" y1="661.686" x2="41.4453" y2="549.395" stroke="#C5D9EE" stroke-linecap="round"/>
<line x1="45.5059" y1="661.686" x2="45.5059" y2="549.395" stroke="#C5D9EE" stroke-linecap="round"/>
<line x1="49.5742" y1="661.686" x2="49.5742" y2="549.395" stroke="#C5D9EE" stroke-linecap="round"/>
<line x1="53.6328" y1="661.686" x2="53.6328" y2="549.395" stroke="#C5D9EE" stroke-linecap="round"/>
<line x1="57.6992" y1="661.686" x2="57.6992" y2="549.395" stroke="#C5D9EE" stroke-linecap="round"/>
<line x1="61.7637" y1="661.686" x2="61.7637" y2="549.395" stroke="#C5D9EE" stroke-linecap="round"/>
<rect x="1311.84" y="340" width="118.534" height="338" fill="#0C8DB6"/>
<rect x="1324.12" y="300.442" width="105.888" height="39.2084" fill="#0C8DB6"/>
<rect x="1337.42" y="248.164" width="81.8456" height="52.2779" fill="#0C8DB6"/>
<rect x="1349.7" y="227.707" width="53.7112" height="20.4566" fill="#0C8DB6"/>
<path d="M1391.13 201V227.707H1360.95L1391.13 201Z" fill="#0C8DB6"/>
<rect x="1430.38" y="470" width="74.3349" height="197" fill="#0C8DB6"/>
<rect x="1478.6" y="420.909" width="26.5998" height="49.4367" fill="#0C8DB6"/>
<rect x="1484.23" y="404.429" width="7.67303" height="16.4789" fill="#0C8DB6"/>
</g>
</g>
<defs>
<clipPath id="clip0_245_813">
<rect width="1506" height="922" fill="white"/>
</clipPath>
</defs>
</svg>
