<svg width="1527" height="922" viewBox="0 0 1527 922" fill="none" xmlns="http://www.w3.org/2000/svg">
<g clip-path="url(#clip0_245_1184)">
<mask id="mask0_245_1184" style="mask-type:luminance" maskUnits="userSpaceOnUse" x="0" y="-1" width="1607" height="924">
<path d="M1606.53 -0.0869141H0V922.086H1606.53V-0.0869141Z" fill="white"/>
</mask>
<g mask="url(#mask0_245_1184)">
<mask id="mask1_245_1184" style="mask-type:alpha" maskUnits="userSpaceOnUse" x="1161" y="548" width="174" height="130">
<rect width="172.258" height="129.367" transform="matrix(-1 0 0 1 1334.17 548.079)" fill="#D9D9D9"/>
</mask>
<g mask="url(#mask1_245_1184)">
<ellipse cx="1231.95" cy="639.204" rx="66.5085" ry="66.2498" fill="#508D99"/>
<ellipse cx="1280.9" cy="604.496" rx="51.8766" ry="57.8894" fill="#508D99"/>
<ellipse cx="1213.26" cy="591.899" rx="3.39193" ry="3.20499" fill="#A2C5CC"/>
<ellipse cx="1216.65" cy="609.254" rx="1.32998" ry="1.20943" fill="#A2C5CC"/>
<ellipse cx="1224.63" cy="612.882" rx="1.32998" ry="1.20943" fill="#3B697C"/>
<ellipse cx="1236.4" cy="582.345" rx="3.39193" ry="3.20499" fill="#A2C5CC"/>
<ellipse cx="1236.6" cy="595.467" rx="1.99525" ry="1.81414" fill="#A2C5CC"/>
<ellipse cx="1181.8" cy="653.64" rx="1.99525" ry="1.81414" fill="#A2C5CC"/>
<ellipse cx="1252.63" cy="595.164" rx="3.39193" ry="3.20499" fill="#A2C5CC"/>
<ellipse cx="1253.56" cy="606.533" rx="3.39193" ry="3.20499" fill="#A2C5CC"/>
<ellipse cx="1189.18" cy="606.049" rx="3.39193" ry="3.20499" fill="#A2C5CC"/>
<ellipse cx="1256.02" cy="579.14" rx="2.66034" ry="2.41886" fill="#A2C5CC"/>
<ellipse cx="1258.68" cy="561.482" rx="2.66034" ry="2.41886" fill="#A2C5CC"/>
<ellipse cx="1273.71" cy="571.763" rx="2.66034" ry="2.41886" fill="#A2C5CC"/>
<ellipse cx="1266.53" cy="578.657" rx="1.59598" ry="1.45131" fill="#A2C5CC"/>
<ellipse cx="1275.58" cy="590.508" rx="1.32998" ry="1.20943" fill="#A2C5CC"/>
<ellipse cx="1288.35" cy="590.508" rx="1.32998" ry="1.20943" fill="#A2C5CC"/>
<ellipse cx="1279.23" cy="585.247" rx="0.997486" ry="0.907071" fill="#3B697C"/>
<ellipse cx="1263.87" cy="595.588" rx="1.59598" ry="1.45131" fill="#3B697C"/>
<ellipse cx="1247.64" cy="588.21" rx="1.59598" ry="1.45131" fill="#3B697C"/>
<ellipse cx="1251.76" cy="573.214" rx="1.59598" ry="1.45131" fill="#3B697C"/>
<ellipse cx="1208.13" cy="584.945" rx="1.46298" ry="1.33037" fill="#3B697C"/>
<ellipse cx="1219.44" cy="580.47" rx="1.46298" ry="1.33037" fill="#A2C5CC"/>
<ellipse cx="1224.76" cy="594.983" rx="1.46298" ry="1.33037" fill="#3F7082"/>
<ellipse cx="1226.09" cy="588.936" rx="1.46298" ry="1.33037" fill="#A2C5CC"/>
<ellipse cx="1288.35" cy="566.682" rx="1.32998" ry="1.20943" fill="#A2C5CC"/>
<ellipse cx="1282.22" cy="576.721" rx="1.32998" ry="1.20943" fill="#3B697C"/>
<ellipse cx="1313.48" cy="575.995" rx="1.32998" ry="1.20943" fill="#3B697C"/>
<ellipse cx="1241.85" cy="605.686" rx="0.997486" ry="0.907071" fill="#3B697C"/>
<ellipse cx="1296.39" cy="573.274" rx="0.997486" ry="0.907071" fill="#3B697C"/>
<ellipse cx="1276.9" cy="560.998" rx="1.32998" ry="1.20943" fill="#3B697C"/>
<ellipse cx="1268.92" cy="554.952" rx="1.32998" ry="1.20943" fill="#A2C5CC"/>
<ellipse cx="1205.34" cy="620.865" rx="2.66034" ry="2.41886" fill="#A2C5CC"/>
<ellipse cx="1202.68" cy="636.708" rx="2.66034" ry="2.41886" fill="#A2C5CC"/>
<ellipse cx="1187.45" cy="595.406" rx="1.66248" ry="1.51179" fill="#A2C5CC"/>
<ellipse cx="1196.76" cy="588.15" rx="1.66248" ry="1.51179" fill="#A2C5CC"/>
<ellipse cx="1200.75" cy="596.616" rx="1.66248" ry="1.51179" fill="#3F7082"/>
<ellipse cx="1204.41" cy="604.78" rx="1.32998" ry="1.20943" fill="#A2C5CC"/>
<ellipse cx="1181.47" cy="641.849" rx="1.66248" ry="1.51179" fill="#3B697C"/>
<ellipse cx="1181.47" cy="641.849" rx="1.66248" ry="1.51179" fill="#3B697C"/>
<ellipse cx="1181.47" cy="641.849" rx="1.66248" ry="1.51179" fill="#3B697C"/>
<ellipse cx="1190.78" cy="644.026" rx="1.66248" ry="1.51179" fill="#3B697C"/>
<ellipse cx="1190.78" cy="644.026" rx="1.66248" ry="1.51179" fill="#3B697C"/>
<ellipse cx="1190.78" cy="644.026" rx="1.66248" ry="1.51179" fill="#3B697C"/>
<ellipse cx="1193.43" cy="656.241" rx="0.997486" ry="0.907071" fill="#3B697C"/>
<ellipse cx="1193.43" cy="656.241" rx="0.997486" ry="0.907071" fill="#3B697C"/>
<ellipse cx="1193.43" cy="656.241" rx="0.997486" ry="0.907071" fill="#A2C5CC"/>
<ellipse cx="1183.86" cy="619.958" rx="1.66248" ry="1.51179" fill="#3B697C"/>
<ellipse cx="1183.86" cy="619.958" rx="1.66248" ry="1.51179" fill="#3B697C"/>
<ellipse cx="1183.86" cy="619.958" rx="1.66248" ry="1.51179" fill="#3B697C"/>
<ellipse cx="1177.87" cy="629.634" rx="0.997486" ry="0.907071" fill="#3B697C"/>
<ellipse cx="1177.87" cy="629.634" rx="0.997486" ry="0.907071" fill="#3B697C"/>
<ellipse cx="1177.87" cy="629.634" rx="0.997486" ry="0.907071" fill="#A2C5CC"/>
<ellipse cx="1173.09" cy="625.159" rx="0.997486" ry="0.907071" fill="#3B697C"/>
<ellipse cx="1173.09" cy="625.159" rx="0.997486" ry="0.907071" fill="#3B697C"/>
<ellipse cx="1173.09" cy="625.159" rx="0.997486" ry="0.907071" fill="#A2C5CC"/>
<ellipse cx="1196.76" cy="615.121" rx="1.66248" ry="1.51179" fill="#3B697C"/>
<ellipse cx="1196.76" cy="615.121" rx="1.66248" ry="1.51179" fill="#3B697C"/>
<ellipse cx="1196.76" cy="615.121" rx="1.66248" ry="1.51179" fill="#3B697C"/>
<ellipse cx="1179.21" cy="611.249" rx="1.39648" ry="1.2699" fill="#3B697C"/>
<ellipse cx="1179.21" cy="611.249" rx="1.39648" ry="1.2699" fill="#3B697C"/>
<ellipse cx="1179.21" cy="611.249" rx="1.39648" ry="1.2699" fill="#3B697C"/>
<ellipse cx="1291.74" cy="581.135" rx="3.39193" ry="3.20499" fill="#A2C5CC"/>
<ellipse cx="1189.05" cy="633.745" rx="3.39193" ry="3.20499" fill="#A2C5CC"/>
</g>
<mask id="mask2_245_1184" style="mask-type:alpha" maskUnits="userSpaceOnUse" x="1241" y="520" width="158" height="158">
<rect x="1241.61" y="520.619" width="156.999" height="156.828" fill="#D9D9D9"/>
</mask>
<g mask="url(#mask2_245_1184)">
<ellipse cx="1339.71" cy="614.091" rx="54.5479" ry="88.1073" fill="#17435A"/>
<ellipse cx="1277.04" cy="651.8" rx="30.7678" ry="41.8355" fill="#17435A"/>
<path d="M1326.44 577.805C1326.28 576.516 1327.27 576.877 1328.29 577.617C1329.03 579.367 1329.47 580.134 1329.78 585.293C1329.73 586.557 1329.38 587.818 1328.67 590.222L1328.09 585.464L1327.37 579.567C1327.28 578.873 1326.59 579.093 1326.44 577.805Z" fill="#F8E6C7" stroke="#F8E6C7" stroke-width="0.5" stroke-linecap="round"/>
<path d="M1384.01 577.237C1383.81 575.954 1382.95 576.532 1382.17 577.482C1381.94 579.346 1381.72 580.19 1382.86 585.251C1383.27 586.462 1383.95 587.602 1385.31 589.764L1384.55 585.028L1383.6 579.156C1383.49 578.465 1384.22 578.52 1384.01 577.237Z" fill="#F8E6C7" stroke="#F8E6C7" stroke-width="0.5" stroke-linecap="round"/>
<path d="M1383.62 624.219C1383.83 622.936 1384.69 623.514 1385.46 624.465C1385.69 626.328 1385.91 627.172 1384.77 632.234C1384.37 633.444 1383.68 634.584 1382.33 636.747L1383.09 632.01L1384.03 626.139C1384.14 625.448 1383.41 625.502 1383.62 624.219Z" fill="#F8E6C7" stroke="#F8E6C7" stroke-width="0.5" stroke-linecap="round"/>
<path d="M1315.48 608.071C1315.48 608.37 1315.53 609.367 1314.33 608.968C1313.12 608.569 1312.96 604.174 1313.12 601.638C1313.49 601.335 1314.33 600.741 1314.66 600.741C1314.98 600.741 1315.06 600.38 1315.48 600.741V603.882V608.071Z" fill="#F8E6C7" stroke="#F8E6C7" stroke-width="0.5" stroke-linecap="round"/>
<path d="M1343.36 610.874C1343.39 612.171 1344.32 611.694 1345.23 610.84C1345.71 609.016 1346.04 608.204 1345.6 603.052C1345.36 601.806 1344.84 600.597 1343.79 598.298L1343.9 603.084L1344.03 609.017C1344.05 609.714 1343.33 609.578 1343.36 610.874Z" fill="#F8E6C7" stroke="#F8E6C7" stroke-width="0.5" stroke-linecap="round"/>
<path d="M1372.19 603.665C1372.19 603.366 1372.13 602.369 1373.34 602.768C1374.54 603.167 1374.71 607.562 1374.54 610.098C1374.17 610.4 1373.34 610.995 1373.01 610.995C1372.68 610.995 1372.6 611.356 1372.19 610.995V607.854V603.665Z" fill="#F8E6C7" stroke="#F8E6C7" stroke-width="0.5" stroke-linecap="round"/>
<path d="M1326.01 631.565C1326.01 631.966 1325.95 633.303 1327.16 632.768C1328.37 632.233 1328.53 626.34 1328.37 622.942C1328 622.536 1327.16 621.738 1326.83 621.738C1326.5 621.738 1326.43 621.255 1326.01 621.738V625.95V631.565Z" fill="#F8E6C7" stroke="#F8E6C7" stroke-width="0.5" stroke-linecap="round"/>
<path d="M1326.01 668.726C1326.01 668.325 1325.95 666.988 1327.16 667.523C1328.37 668.058 1328.53 673.951 1328.37 677.349C1328 677.755 1327.16 678.553 1326.83 678.553C1326.5 678.553 1326.43 679.036 1326.01 678.553V674.341V668.726Z" fill="#F8E6C7" stroke="#F8E6C7" stroke-width="0.5" stroke-linecap="round"/>
<path d="M1370.54 655.499C1370.54 655.9 1370.6 657.237 1369.39 656.702C1368.18 656.167 1368.02 650.275 1368.18 646.876C1368.55 646.47 1369.39 645.672 1369.72 645.672C1370.05 645.672 1370.12 645.189 1370.54 645.672V649.884V655.499Z" fill="#F8E6C7" stroke="#F8E6C7" stroke-width="0.5" stroke-linecap="round"/>
<path d="M1356.39 624.746C1356.39 624.345 1356.45 623.008 1355.24 623.543C1354.03 624.078 1353.87 629.971 1354.03 633.369C1354.41 633.775 1355.24 634.573 1355.57 634.573C1355.9 634.573 1355.98 635.056 1356.39 634.573V630.361V624.746Z" fill="#F8E6C7" stroke="#F8E6C7" stroke-width="0.5" stroke-linecap="round"/>
<path d="M1316.46 658.744C1316.43 660.04 1315.5 659.564 1314.59 658.709C1314.11 656.886 1313.78 656.073 1314.22 650.922C1314.46 649.675 1314.98 648.466 1316.03 646.168L1315.92 650.954L1315.79 656.886C1315.77 657.584 1316.49 657.448 1316.46 658.744Z" fill="#F8E6C7" stroke="#F8E6C7" stroke-width="0.5" stroke-linecap="round"/>
<path d="M1340.82 649.539C1340.82 649.24 1340.76 648.243 1341.97 648.642C1343.17 649.041 1343.34 653.436 1343.17 655.972C1342.8 656.275 1341.97 656.869 1341.64 656.869C1341.31 656.869 1341.23 657.23 1340.82 656.869V653.728V649.539Z" fill="#F8E6C7" stroke="#F8E6C7" stroke-width="0.5" stroke-linecap="round"/>
<path d="M1357.54 669.466C1357.79 673.272 1356.23 678.453 1355.41 680.568C1354.83 678.734 1355.55 672.576 1355.99 669.726C1356.4 668.054 1357.29 665.661 1357.54 669.466Z" fill="#F2E5C9" stroke="#F7E6C7" stroke-width="0.5"/>
<path d="M1268.1 624.931C1268.1 624.414 1268.04 622.69 1269.25 623.379C1270.45 624.069 1270.62 631.668 1270.45 636.05C1270.08 636.574 1269.25 637.602 1268.92 637.602C1268.59 637.602 1268.51 638.225 1268.1 637.602V632.171V624.931Z" fill="#F8E6C7" stroke="#F8E6C7" stroke-width="0.5" stroke-linecap="round"/>
<path d="M1257.66 644.442C1257.32 649.054 1259.84 655.043 1261.13 657.461C1262.02 655.167 1260.8 647.876 1260.08 644.517C1259.41 642.57 1258 639.83 1257.66 644.442Z" fill="#F2E5C9" stroke="#F7E6C7" stroke-width="0.5"/>
<path d="M1283.23 650.854C1283.23 651.153 1283.18 652.15 1284.38 651.751C1285.59 651.352 1285.76 646.957 1285.59 644.421C1285.22 644.119 1284.38 643.524 1284.06 643.524C1283.73 643.524 1283.65 643.163 1283.23 643.524V646.665V650.854Z" fill="#F8E6C7" stroke="#F8E6C7" stroke-width="0.5" stroke-linecap="round"/>
<path d="M1272.91 669.315C1272.89 670.612 1271.95 670.135 1271.05 669.281C1270.57 667.457 1270.24 666.645 1270.68 661.493C1270.91 660.247 1271.44 659.038 1272.49 656.739L1272.38 661.525L1272.24 667.457C1272.23 668.155 1272.94 668.019 1272.91 669.315Z" fill="#F8E6C7" stroke="#F8E6C7" stroke-width="0.5" stroke-linecap="round"/>
<path d="M1284.44 680.573C1284.44 680.872 1284.49 681.87 1283.28 681.471C1282.08 681.072 1281.91 676.676 1282.08 674.141C1282.45 673.838 1283.28 673.243 1283.61 673.243C1283.94 673.243 1284.02 672.883 1284.44 673.243V676.385V680.573Z" fill="#F8E6C7" stroke="#F8E6C7" stroke-width="0.5" stroke-linecap="round"/>
<path d="M1341.35 554.834C1340.38 558.544 1340.95 563.893 1341.35 566.103C1342.27 564.388 1342.72 558.208 1342.83 555.333C1342.74 553.621 1342.31 551.124 1341.35 554.834Z" fill="#F2E5C9" stroke="#F7E6C7" stroke-width="0.5"/>
<path d="M1297.26 578.67C1296.29 582.38 1296.85 587.729 1297.26 589.94C1298.18 588.224 1298.63 582.044 1298.74 579.169C1298.64 577.457 1298.22 574.96 1297.26 578.67Z" fill="#F2E5C9" stroke="#F7E6C7" stroke-width="0.5"/>
<path d="M1297.74 623.711C1297.76 627.523 1299.7 632.601 1300.66 634.663C1301.11 632.798 1299.95 626.696 1299.31 623.878C1298.77 622.234 1297.72 619.899 1297.74 623.711Z" fill="#F2E5C9" stroke="#F7E6C7" stroke-width="0.5"/>
<path d="M1370.54 556.195C1370.54 555.896 1370.49 554.899 1371.69 555.297C1372.9 555.696 1373.06 560.092 1372.9 562.627C1372.53 562.93 1371.69 563.525 1371.36 563.525C1371.03 563.525 1370.96 563.885 1370.54 563.525V560.384V556.195Z" fill="#F8E6C7" stroke="#F8E6C7" stroke-width="0.5" stroke-linecap="round"/>
<path d="M1328.42 539.939C1328.42 539.639 1328.37 538.642 1329.57 539.041C1330.78 539.44 1330.95 543.836 1330.78 546.371C1330.41 546.674 1329.57 547.269 1329.24 547.269C1328.92 547.269 1328.84 547.629 1328.42 547.269V544.127V539.939Z" fill="#F8E6C7" stroke="#F8E6C7" stroke-width="0.5" stroke-linecap="round"/>
<path d="M1354.86 580.229C1354.86 579.93 1354.8 578.933 1356.01 579.332C1357.21 579.731 1357.38 584.126 1357.21 586.662C1356.84 586.964 1356.01 587.559 1355.68 587.559C1355.35 587.559 1355.27 587.92 1354.86 587.559V584.418V580.229Z" fill="#F8E6C7" stroke="#F8E6C7" stroke-width="0.5" stroke-linecap="round"/>
<path d="M1315.48 553.9C1315.48 553.601 1315.53 552.604 1314.33 553.003C1313.12 553.401 1312.96 557.797 1313.12 560.333C1313.49 560.635 1314.33 561.23 1314.66 561.23C1314.98 561.23 1315.06 561.591 1315.48 561.23V558.089V553.9Z" fill="#F8E6C7" stroke="#F8E6C7" stroke-width="0.5" stroke-linecap="round"/>
<path d="M1354.04 537.528C1353.88 536.24 1354.87 536.601 1355.89 537.34C1356.63 539.091 1357.08 539.857 1357.38 545.016C1357.33 546.28 1356.98 547.541 1356.28 549.945L1355.69 545.187L1354.97 539.29C1354.89 538.596 1354.2 538.817 1354.04 537.528Z" fill="#F8E6C7" stroke="#F8E6C7" stroke-width="0.5" stroke-linecap="round"/>
</g>
<mask id="mask3_245_1184" style="mask-type:alpha" maskUnits="userSpaceOnUse" x="1176" y="600" width="116" height="66">
<rect width="115.507" height="65.7828" transform="matrix(1 0 0 -1 1176.2 665.81)" fill="#D9D9D9"/>
</mask>
<g mask="url(#mask3_245_1184)">
<ellipse cx="1191.87" cy="658.983" rx="14.544" ry="14.9191" fill="#34578D"/>
<ellipse cx="1218.78" cy="641.464" rx="26.9125" ry="23.3959" fill="#34578D"/>
<ellipse cx="1255.7" cy="629.71" rx="26.9125" ry="26.4476" fill="#34578D"/>
<ellipse cx="1260.05" cy="657.739" rx="26.9125" ry="23.3959" fill="#34578D"/>
<ellipse cx="1226.24" cy="659.887" rx="26.9125" ry="23.3959" fill="#34578D"/>
<ellipse cx="3.63453" cy="1.89404" rx="3.63453" ry="1.89404" transform="matrix(0.962741 0.270425 -0.321712 0.946838 1214.27 650.054)" fill="#BA6D74"/>
<ellipse cx="3.56016" cy="1.90994" rx="3.56016" ry="1.90994" transform="matrix(0.903817 -0.427919 0.496977 0.867764 1216.86 655.814)" fill="#BA6D74"/>
<ellipse cx="3.61927" cy="2.36779" rx="3.61927" ry="2.36779" transform="matrix(0.941256 -0.337694 0.398106 0.917339 1220.09 648.655)" fill="#BA6D74"/>
<ellipse cx="3.61927" cy="2.36779" rx="3.61927" ry="2.36779" transform="matrix(0.941256 -0.337694 0.398106 0.917339 1235 632.493)" fill="#BA6D74"/>
<ellipse cx="3.61927" cy="2.36779" rx="3.61927" ry="2.36779" transform="matrix(0.941256 -0.337694 0.398106 0.917339 1236.87 643.91)" fill="#BA6D74"/>
<ellipse cx="3.61927" cy="2.36779" rx="3.61927" ry="2.36779" transform="matrix(0.941256 -0.337694 0.398106 0.917339 1253.9 626.391)" fill="#BA6D74"/>
<ellipse cx="3.61927" cy="2.36779" rx="3.61927" ry="2.36779" transform="matrix(0.941256 -0.337694 0.398106 0.917339 1250.04 646.396)" fill="#BA6D74"/>
<ellipse cx="3.61927" cy="2.36779" rx="3.61927" ry="2.36779" transform="matrix(0.941256 -0.337694 0.398106 0.917339 1247.56 660.976)" fill="#BA6D74"/>
<ellipse cx="3.61927" cy="2.36779" rx="3.61927" ry="2.36779" transform="matrix(-0.941256 -0.337694 -0.398106 0.917339 1250.54 653.854)" fill="#BA6D74"/>
<ellipse cx="3.61927" cy="2.36779" rx="3.61927" ry="2.36779" transform="matrix(-0.941256 -0.337694 -0.398106 0.917339 1253.89 638.597)" fill="#BA6D74"/>
<ellipse cx="3.61927" cy="2.36779" rx="3.61927" ry="2.36779" transform="matrix(-0.941256 -0.337694 -0.398106 0.917339 1259.24 618.93)" fill="#BA6D74"/>
<ellipse cx="3.05067" cy="1.8411" rx="3.05067" ry="1.8411" transform="matrix(-0.941256 -0.337694 -0.398106 0.917339 1256.26 628.425)" fill="#BA6D74"/>
<ellipse cx="2.87334" cy="1.95656" rx="2.87334" ry="1.95656" transform="matrix(-0.514718 -0.857359 -0.895746 0.444567 1269.06 628.76)" fill="#BA6D74"/>
<ellipse cx="2.26003" cy="1.66141" rx="2.26003" ry="1.66141" transform="matrix(-0.514718 -0.857359 -0.895746 0.444567 1262.97 635.429)" fill="#BA6D74"/>
<ellipse cx="3.00228" cy="1.54182" rx="3.00228" ry="1.54182" transform="matrix(-0.999841 0.0178191 -0.021553 -0.999768 1271.28 634.467)" fill="#BA6D74"/>
<ellipse cx="3.61927" cy="2.36779" rx="3.61927" ry="2.36779" transform="matrix(0.941256 -0.337694 0.398106 0.917339 1233.14 657.245)" fill="#BA6D74"/>
<ellipse cx="3.61927" cy="2.36779" rx="3.61927" ry="2.36779" transform="matrix(-0.941256 -0.337694 -0.398106 0.917339 1238.73 647.752)" fill="#BA6D74"/>
<ellipse cx="3.61927" cy="2.36779" rx="3.61927" ry="2.36779" transform="matrix(-0.941256 -0.337694 -0.398106 0.917339 1236.24 636.675)" fill="#BA6D74"/>
<ellipse cx="3.12052" cy="1.62733" rx="3.12052" ry="1.62733" transform="matrix(0.941256 -0.337694 0.398106 0.917339 1216.23 640.633)" fill="#BA6D74"/>
<ellipse cx="3.15485" cy="1.60652" rx="3.15485" ry="1.60652" transform="matrix(0.995826 0.0912755 -0.110198 0.99391 1210.25 639.204)" fill="#BA6D74"/>
<ellipse cx="3.61927" cy="2.36779" rx="3.61927" ry="2.36779" transform="matrix(0.941256 -0.337694 0.398106 0.917339 1210.02 632.493)" fill="#BA6D74"/>
<ellipse cx="3.61927" cy="2.36779" rx="3.61927" ry="2.36779" transform="matrix(0.941256 -0.337694 0.398106 0.917339 1217.48 662.671)" fill="#BA6D74"/>
<ellipse cx="3.59884" cy="2.38306" rx="3.59884" ry="2.38306" transform="matrix(0.911235 0.411886 -0.479738 0.877412 1205.59 627.11)" fill="#BA6D74"/>
<path d="M1191.87 650.958C1191.87 654.618 1189.71 662.504 1188.63 665.99" stroke="#BA6D74" stroke-width="2" stroke-linecap="round"/>
<path d="M1184.41 655.253C1185.7 657.604 1186.81 663.391 1187.21 665.991" stroke="#BA6D74" stroke-width="2" stroke-linecap="round"/>
<ellipse cx="2.60133" cy="1.66009" rx="2.60133" ry="1.66009" transform="matrix(0.983103 -0.183052 0.219727 0.975561 1191 654.85)" fill="#BA6D74"/>
<ellipse cx="2.55397" cy="1.6954" rx="2.55397" ry="1.6954" transform="matrix(0.886931 0.461902 -0.533014 0.846106 1182.24 657.561)" fill="#BA6D74"/>
<ellipse cx="1.23962" cy="1.13383" rx="1.23962" ry="1.13383" transform="matrix(0.987284 -0.158963 0.191172 0.981557 1185.78 657.117)" fill="#BA6D74"/>
<path d="M1264.63 654.136C1265.61 656.779 1266.16 662.951 1266.31 665.707" stroke="#BA6D74" stroke-width="2" stroke-linecap="round"/>
<path d="M1260.37 658.894C1261.94 660.304 1264.29 664.235 1265.27 666.025" stroke="#BA6D74" stroke-width="2" stroke-linecap="round"/>
<ellipse cx="1.97378" cy="1.27734" rx="1.97378" ry="1.27734" transform="matrix(0.874953 -0.461993 0.546289 0.852006 1265.04 657.139)" fill="#BA6D74"/>
<ellipse cx="1.94301" cy="1.29981" rx="1.94301" ry="1.29981" transform="matrix(1.00767 0.179389 -0.208835 0.95121 1259.41 661.042)" fill="#BA6D74"/>
<ellipse cx="0.940466" cy="0.872552" rx="0.940466" ry="0.872552" transform="matrix(0.887556 -0.440351 0.521372 0.865723 1261.86 659.936)" fill="#BA6D74"/>
<ellipse cx="2.60133" cy="1.66009" rx="2.60133" ry="1.66009" transform="matrix(0.983103 -0.183052 0.219727 0.975561 1199.7 651.007)" fill="#BA6D74"/>
<ellipse cx="2.56002" cy="1.69096" rx="2.56002" ry="1.69096" transform="matrix(0.900105 -0.435673 0.50526 0.862967 1202.7 657.57)" fill="#BA6D74"/>
<ellipse cx="2.57494" cy="1.67994" rx="2.57494" ry="1.67994" transform="matrix(0.931394 0.364014 -0.427402 0.904062 1200.18 660.346)" fill="#BA6D74"/>
<ellipse cx="2.57494" cy="1.67994" rx="2.57494" ry="1.67994" transform="matrix(0.931394 0.364014 -0.427402 0.904062 1198.28 641.804)" fill="#BA6D74"/>
<path d="M1200.45 639.769C1202.58 644.154 1203.86 649.696 1204.24 651.919V666.104" stroke="#BA6D74" stroke-width="2" stroke-linecap="round"/>
<ellipse cx="3.56034" cy="2.41133" rx="3.56034" ry="2.41133" transform="matrix(0.850258 -0.526366 0.599407 0.800444 1202.31 646.682)" fill="#BA6D74"/>
<ellipse cx="2.59479" cy="1.56633" rx="2.59479" ry="1.56633" transform="matrix(0.966375 -0.246465 0.321024 0.950841 1270.77 655.752)" fill="#BA6D74"/>
<ellipse cx="2.5306" cy="1.61648" rx="2.5306" ry="1.61648" transform="matrix(0.869495 -0.481719 0.60437 0.805552 1274.33 661.675)" fill="#BA6D74"/>
<ellipse cx="2.55384" cy="1.59864" rx="2.55384" ry="1.59864" transform="matrix(0.967404 0.272712 -0.365846 0.923838 1272.06 664.462)" fill="#BA6D74"/>
<ellipse cx="2.55384" cy="1.59864" rx="2.55384" ry="1.59864" transform="matrix(0.967392 0.272756 -0.365794 0.92386 1268.56 647.241)" fill="#BA6D74"/>
<path d="M1270.55 645.17C1273.06 649.116 1274.81 654.21 1275.38 656.263L1276.6 669.549" stroke="#BA6D74" stroke-width="2" stroke-linecap="round"/>
<ellipse cx="3.50146" cy="2.32003" rx="3.50146" ry="2.32003" transform="matrix(0.815514 -0.566733 0.692407 0.732103 1273.01 651.505)" fill="#BA6D74"/>
<path d="M1210.82 626.733C1209.26 633.417 1213.21 638.671 1215.38 640.462C1222.85 644.286 1221.22 651.009 1219.47 653.893C1218.65 654.383 1217.06 655.792 1217.25 657.502C1217.43 659.211 1218.76 664.483 1219.4 666.905" stroke="#BA6D74" stroke-width="2" stroke-linecap="round"/>
<path d="M1238.76 627.177C1235.24 631.443 1234.78 636.373 1235 638.305L1236.99 641.462L1237.97 642.859L1238.16 644.154C1238.48 648.854 1233.43 656.095 1232.95 659.549L1232.35 665.943" stroke="#BA6D74" stroke-width="2" stroke-linecap="round"/>
<path d="M1260.08 617.077C1256.24 619.181 1250.3 650.817 1247.81 666.371" stroke="#BA6D74" stroke-width="2" stroke-linecap="round"/>
<path d="M1254.02 637.508C1260.29 639.995 1267.78 629.879 1270.74 624.511" stroke="#BA6D74" stroke-width="2" stroke-linecap="round"/>
</g>
<path d="M1297.27 582.669H1273.29C1275.46 648.239 1274.84 675.243 1265.08 677.289H1297.27C1277.59 657.612 1284.88 623.096 1297.27 582.669Z" fill="#F7E6C6"/>
<path d="M1282.03 677.173C1279.06 669.536 1279.73 666.261 1287.99 663.466" stroke="#FBAEAC" stroke-linecap="round"/>
<path d="M1286.14 658.782C1277.87 661.577 1273.1 669.074 1276.07 676.711" stroke="#FBAEAC" stroke-linecap="round"/>
<path d="M1285.01 641.315C1276.75 644.11 1274.62 649.065 1274.02 654.964" stroke="#FBAEAC" stroke-linecap="round"/>
<path d="M1274.62 641.604C1275.74 639.464 1276.94 631.714 1274.62 628.938" stroke="#FBAEAC" stroke-linecap="round"/>
<path d="M1274.42 622.865C1285.87 626.798 1271.7 632.119 1285.15 637.844" stroke="#FBAEAC" stroke-linecap="round"/>
<path d="M1284.37 647.485C1272.92 651.418 1287.09 656.739 1273.65 662.464" stroke="#FBAEAC" stroke-linecap="round"/>
<path d="M1292.5 589.147C1281.5 596.03 1285.35 616.908 1274.42 619.974" stroke="#FBAEAC" stroke-linecap="round"/>
<path d="M1281.78 611.694C1287.51 615.553 1286.12 624.474 1286.6 624.484" stroke="#FBAEAC" stroke-linecap="round"/>
<path d="M1279.47 617.546C1282.9 618.999 1279.59 632.35 1285.75 631.772" stroke="#FBAEAC" stroke-linecap="round"/>
<path d="M1287.2 589.146C1276.21 596.028 1285.35 612.396 1274.42 615.461" stroke="#FBAEAC" stroke-linecap="round"/>
<path d="M1282.56 594.467C1281.84 591.923 1271.97 590.824 1274.78 587.396" stroke="#FBAEAC" stroke-linecap="round"/>
<path d="M1281.18 599.128C1280.45 596.583 1273.76 596.666 1273.76 592.56" stroke="#FBAEAC" stroke-linecap="round"/>
<ellipse cx="51.588" cy="41.4947" rx="51.588" ry="41.4947" transform="matrix(-1 0 0 1 1334.88 515.588)" fill="#3B697C"/>
<ellipse cx="40.926" cy="47.1888" rx="40.926" ry="47.1888" transform="matrix(-1 0 0 1 1322.17 479)" fill="#3B697C"/>
<path d="M1314.42 499.174C1316.81 507.17 1309.85 513.993 1306.81 514.34C1299.25 512.37 1299.52 508.906 1301.31 498.666" stroke="#A2C5CC" stroke-linecap="round"/>
<path d="M1300.98 497.74C1301.84 502.83 1298.79 514.975 1293.25 514.397C1289.37 513.992 1287.08 508.016 1288.6 497.74" stroke="#A2C5CC" stroke-linecap="round"/>
<path d="M1274.55 496.85C1273.96 507.168 1275.28 512.373 1280.05 514.86C1285.28 514.86 1288.65 509.429 1288.53 497.798" stroke="#A2C5CC" stroke-linecap="round"/>
<path d="M1261.84 496.584C1260.61 507.18 1265.21 510.862 1267.66 511.378C1274.03 510.251 1274.9 506.552 1274.45 497.704" stroke="#A2C5CC" stroke-linecap="round"/>
<path d="M1250.99 495.369C1249.51 508.066 1252.7 513.356 1256.01 512.924C1262.03 511.43 1262.46 507.119 1262.31 496.551" stroke="#A2C5CC" stroke-linecap="round"/>
<path d="M1310.12 493.176C1311.04 499.306 1309.85 499.88 1306.81 500.227C1299.25 498.258 1298.86 495.545 1300.65 485.305" stroke="#A2C5CC" stroke-linecap="round"/>
<path d="M1300.98 485.363C1300.98 496.552 1295.83 499.973 1293.25 500.285C1286.86 498.515 1286.62 490.115 1288.13 480.91" stroke="#A2C5CC" stroke-linecap="round"/>
<path d="M1276.01 480.158C1271.31 486.347 1276.01 501.615 1279.84 502.044C1286.32 500.025 1287.41 494.338 1287.51 480.854" stroke="#A2C5CC" stroke-linecap="round"/>
<path d="M1261.84 485.119C1260.61 495.715 1265.21 496.749 1267.66 497.266C1274.03 496.138 1274.9 492.439 1274.45 483.592" stroke="#A2C5CC" stroke-linecap="round"/>
<path d="M1252.11 493.357C1251.44 497.637 1252.7 499.243 1256.01 498.812C1259.32 498.381 1263.03 491.886 1261.58 485.119" stroke="#A2C5CC" stroke-linecap="round"/>
<path d="M1320.78 516.016C1320.78 528.462 1313.83 532.268 1310.78 532.615C1303.22 530.646 1305.08 519.769 1305.08 516.016" stroke="#A2C5CC" stroke-linecap="round"/>
<path d="M1304.95 516.016C1304.95 528.506 1299.8 532.325 1297.22 532.673C1290.83 530.697 1290.39 526.292 1291.9 516.016" stroke="#A2C5CC" stroke-linecap="round"/>
<path d="M1278.27 517.267C1276.96 528.5 1281.89 532.408 1284.52 532.957C1291.33 531.768 1292.25 527.847 1291.76 518.466" stroke="#A2C5CC" stroke-linecap="round"/>
<path d="M1242.24 514.166C1240.82 526.326 1245.37 530.486 1247.82 531.047C1254.22 529.672 1255.14 525.421 1254.85 515.286" stroke="#A2C5CC" stroke-linecap="round"/>
<path d="M1265.67 516.093C1264.55 525.764 1269.18 529.164 1271.64 529.654C1277.99 528.673 1278.82 525.3 1278.28 517.213" stroke="#A2C5CC" stroke-linecap="round"/>
<path d="M1254.97 513.646C1253.49 526.343 1256.68 531.632 1259.99 531.201C1266.01 529.706 1266.44 525.396 1266.28 514.827" stroke="#A2C5CC" stroke-linecap="round"/>
<path d="M1326.47 535.093C1326.47 547.54 1320.45 549.618 1317.4 549.965C1311.71 548.541 1310.38 539.697 1311.11 533.366" stroke="#A2C5CC" stroke-linecap="round"/>
<path d="M1311.57 533.366C1311.57 545.855 1306.42 549.674 1303.85 550.023C1297.45 548.047 1297.01 543.642 1298.53 533.366" stroke="#A2C5CC" stroke-linecap="round"/>
<path d="M1284.9 534.617C1283.59 545.85 1288.51 549.758 1291.14 550.308C1297.96 549.118 1298.88 545.197 1298.39 535.816" stroke="#A2C5CC" stroke-linecap="round"/>
<path d="M1238.2 537.274C1236.48 541.999 1238.18 546.287 1240.81 546.837C1247.63 545.647 1248.2 538.425 1248.79 531.52" stroke="#A2C5CC" stroke-linecap="round"/>
<path d="M1248.86 531.515C1247.44 543.675 1251.99 547.835 1254.44 548.396C1260.84 547.021 1261.76 542.77 1261.47 532.636" stroke="#A2C5CC" stroke-linecap="round"/>
<path d="M1272.29 533.443C1271.17 543.114 1275.8 546.514 1278.26 547.004C1284.61 546.023 1285.44 542.65 1284.9 534.563" stroke="#A2C5CC" stroke-linecap="round"/>
<path d="M1261.59 530.996C1260.11 543.693 1263.3 548.983 1266.61 548.551C1272.63 547.057 1273.06 542.746 1272.9 532.178" stroke="#A2C5CC" stroke-linecap="round"/>
<path d="M1333.69 551.528C1333.69 563.324 1327.01 566.93 1323.66 567.259C1315.37 565.393 1314.79 561.233 1316.76 551.528" stroke="#A2C5CC" stroke-linecap="round"/>
<path d="M1326.54 535.095C1324.42 547.009 1330.55 550.879 1333.89 551.208" stroke="#A2C5CC" stroke-linecap="round"/>
<path d="M1317.14 550.371C1317.14 562.253 1311.49 565.886 1308.67 566.218C1301.66 564.338 1301.17 560.147 1302.83 550.371" stroke="#A2C5CC" stroke-linecap="round"/>
<path d="M1287.68 549.006C1286.38 560.239 1291.69 564.181 1294.51 564.748C1301.81 563.601 1303.16 551.354 1302.77 550.255" stroke="#A2C5CC" stroke-linecap="round"/>
<path d="M1239.59 547.073C1238.28 558.306 1239.92 563.499 1245.04 563.254C1251.85 562.064 1253.12 557.437 1252.63 548.057" stroke="#A2C5CC" stroke-linecap="round"/>
<path d="M1233.16 561.707C1239.98 560.517 1239.88 557.438 1239.39 548.058" stroke="#A2C5CC" stroke-linecap="round"/>
<path d="M1253.03 547.905C1251.62 560.065 1253.71 563.105 1256.16 563.665C1262.56 562.291 1263.49 558.04 1263.19 547.905" stroke="#A2C5CC" stroke-linecap="round"/>
<path d="M1274.96 548.867C1273.83 558.538 1278.46 561.937 1280.92 562.428C1287.27 561.447 1288.1 558.074 1287.56 549.987" stroke="#A2C5CC" stroke-linecap="round"/>
<path d="M1263.7 547.271C1262.22 559.969 1265.6 562.937 1268.84 562.499C1274.73 560.993 1275.16 555.849 1275.04 545.283" stroke="#A2C5CC" stroke-linecap="round"/>
<path d="M1325.41 567.259C1325.41 579.055 1318.89 581.679 1315.55 582.007C1309.98 580.619 1307.24 577.774 1309.21 568.069" stroke="#A2C5CC" stroke-linecap="round"/>
<path d="M1308.79 567.606C1308.79 579.489 1303.15 583.122 1300.32 583.454C1293.32 581.574 1292.83 577.383 1294.49 567.606" stroke="#A2C5CC" stroke-linecap="round"/>
<path d="M1279.34 566.242C1278.03 577.475 1283.35 581.417 1286.17 581.985C1293.46 580.838 1294.82 568.59 1294.42 567.491" stroke="#A2C5CC" stroke-linecap="round"/>
<path d="M1238.99 577.619C1239.99 576.925 1244.16 572.773 1244.63 565.238" stroke="#A2C5CC" stroke-linecap="round"/>
<path d="M1244.69 565.14C1243.27 577.3 1245.37 580.34 1247.82 580.9C1254.22 579.525 1255.14 575.275 1254.85 565.14" stroke="#A2C5CC" stroke-linecap="round"/>
<path d="M1266.61 566.103C1265.48 575.774 1270.12 579.174 1272.57 579.665C1278.93 578.683 1279.75 575.31 1279.22 567.223" stroke="#A2C5CC" stroke-linecap="round"/>
<path d="M1255.35 564.507C1253.87 577.204 1257.26 580.173 1260.5 579.735C1266.39 578.229 1266.82 573.084 1266.69 562.519" stroke="#A2C5CC" stroke-linecap="round"/>
<path d="M1300.58 584.023C1300.58 589.233 1295.27 590.826 1292.61 590.971C1286.02 590.147 1285.77 586.235 1287.33 581.949" stroke="#A2C5CC" stroke-linecap="round"/>
<path d="M1314.42 581.949C1314.42 585.245 1307.93 587.79 1306.47 588.079C1302.63 588.079 1300.12 585.477 1300.84 583.51" stroke="#A2C5CC" stroke-linecap="round"/>
<path d="M1249.19 581.023C1249.19 583.279 1253.03 584.725 1254.49 585.014C1256.74 584.725 1259.79 581.544 1259.06 579.577" stroke="#A2C5CC" stroke-linecap="round"/>
<path d="M1273.5 579.809C1271.44 582.469 1274.79 591.571 1278.75 591.77C1285.44 590.83 1286.57 588.18 1286.66 581.896" stroke="#A2C5CC" stroke-linecap="round"/>
<path d="M1258.99 579.809C1257.72 584.746 1263.63 589.303 1266.16 589.544C1272.74 589.018 1272.9 583.932 1272.43 579.809" stroke="#A2C5CC" stroke-linecap="round"/>
<mask id="mask4_245_1184" style="mask-type:alpha" maskUnits="userSpaceOnUse" x="396" y="553" width="173" height="131">
<rect x="396.273" y="553.897" width="172.258" height="129.367" fill="#D9D9D9"/>
</mask>
<g mask="url(#mask4_245_1184)">
<ellipse cx="66.5085" cy="66.2498" rx="66.5085" ry="66.2498" transform="matrix(-1 0 0 1 565.008 578.773)" fill="#C5D9EE"/>
<ellipse cx="51.8766" cy="57.8894" rx="51.8766" ry="57.8894" transform="matrix(-1 0 0 1 501.426 552.425)" fill="#C5D9EE"/>
<ellipse cx="3.39193" cy="3.20499" rx="3.39193" ry="3.20499" transform="matrix(-1 0 0 1 520.58 594.512)" fill="#A2C5CC"/>
<ellipse cx="1.32998" cy="1.20943" rx="1.32998" ry="1.20943" transform="matrix(-1 0 0 1 515.127 613.863)" fill="#A2C5CC"/>
<ellipse cx="1.32998" cy="1.20943" rx="1.32998" ry="1.20943" transform="matrix(-1 0 0 1 507.146 617.491)" fill="#3B697C"/>
<ellipse cx="3.39193" cy="3.20499" rx="3.39193" ry="3.20499" transform="matrix(-1 0 0 1 497.436 584.958)" fill="#A2C5CC"/>
<ellipse cx="1.99525" cy="1.81414" rx="1.99525" ry="1.81414" transform="matrix(-1 0 0 1 495.84 599.471)" fill="#A2C5CC"/>
<ellipse cx="1.99525" cy="1.81414" rx="1.99525" ry="1.81414" transform="matrix(-1 0 0 1 550.643 657.645)" fill="#A2C5CC"/>
<ellipse cx="3.39193" cy="3.20499" rx="3.39193" ry="3.20499" transform="matrix(-1 0 0 1 481.209 597.778)" fill="#A2C5CC"/>
<ellipse cx="3.39193" cy="3.20499" rx="3.39193" ry="3.20499" transform="matrix(-1 0 0 1 480.275 609.146)" fill="#A2C5CC"/>
<ellipse cx="3.39193" cy="3.20499" rx="3.39193" ry="3.20499" transform="matrix(-1 0 0 1 544.656 608.663)" fill="#A2C5CC"/>
<ellipse cx="2.66034" cy="2.41886" rx="2.66034" ry="2.41886" transform="matrix(-1 0 0 1 477.084 582.54)" fill="#A2C5CC"/>
<ellipse cx="2.66034" cy="2.41886" rx="2.66034" ry="2.41886" transform="matrix(-1 0 0 1 474.424 564.881)" fill="#A2C5CC"/>
<ellipse cx="2.66034" cy="2.41886" rx="2.66034" ry="2.41886" transform="matrix(-1 0 0 1 459.393 575.162)" fill="#A2C5CC"/>
<ellipse cx="1.59598" cy="1.45131" rx="1.59598" ry="1.45131" transform="matrix(-1 0 0 1 465.512 583.024)" fill="#A2C5CC"/>
<ellipse cx="1.32998" cy="1.20943" rx="1.32998" ry="1.20943" transform="matrix(-1 0 0 1 456.199 595.118)" fill="#A2C5CC"/>
<ellipse cx="1.32998" cy="1.20943" rx="1.32998" ry="1.20943" transform="matrix(-1 0 0 1 443.43 595.118)" fill="#A2C5CC"/>
<ellipse cx="0.997486" cy="0.907071" rx="0.997486" ry="0.907071" transform="matrix(-1 0 0 1 452.209 590.159)" fill="#3B697C"/>
<ellipse cx="1.59598" cy="1.45131" rx="1.59598" ry="1.45131" transform="matrix(-1 0 0 1 468.172 599.955)" fill="#3B697C"/>
<ellipse cx="1.59598" cy="1.45131" rx="1.59598" ry="1.45131" transform="matrix(-1 0 0 1 484.4 592.577)" fill="#3B697C"/>
<ellipse cx="1.59598" cy="1.45131" rx="1.59598" ry="1.45131" transform="matrix(-1 0 0 1 480.275 577.581)" fill="#3B697C"/>
<ellipse cx="1.46298" cy="1.33037" rx="1.46298" ry="1.33037" transform="matrix(-1 0 0 1 523.773 589.433)" fill="#3B697C"/>
<ellipse cx="1.46298" cy="1.33037" rx="1.46298" ry="1.33037" transform="matrix(-1 0 0 1 512.467 584.958)" fill="#A2C5CC"/>
<ellipse cx="1.46298" cy="1.33037" rx="1.46298" ry="1.33037" transform="matrix(-1 0 0 1 507.146 599.471)" fill="#3F7082"/>
<ellipse cx="1.46298" cy="1.33037" rx="1.46298" ry="1.33037" transform="matrix(-1 0 0 1 505.816 593.424)" fill="#A2C5CC"/>
<ellipse cx="1.32998" cy="1.20943" rx="1.32998" ry="1.20943" transform="matrix(-1 0 0 1 443.43 571.291)" fill="#A2C5CC"/>
<ellipse cx="1.32998" cy="1.20943" rx="1.32998" ry="1.20943" transform="matrix(-1 0 0 1 449.551 581.33)" fill="#3B697C"/>
<ellipse cx="1.32998" cy="1.20943" rx="1.32998" ry="1.20943" transform="matrix(-1 0 0 1 418.291 580.604)" fill="#3B697C"/>
<ellipse cx="0.997486" cy="0.907071" rx="0.997486" ry="0.907071" transform="matrix(-1 0 0 1 489.588 610.598)" fill="#3B697C"/>
<ellipse cx="0.997486" cy="0.907071" rx="0.997486" ry="0.907071" transform="matrix(-1 0 0 1 435.051 578.186)" fill="#3B697C"/>
<ellipse cx="1.32998" cy="1.20943" rx="1.32998" ry="1.20943" transform="matrix(-1 0 0 1 454.871 565.607)" fill="#3B697C"/>
<ellipse cx="1.32998" cy="1.20943" rx="1.32998" ry="1.20943" transform="matrix(-1 0 0 1 462.852 559.561)" fill="#A2C5CC"/>
<ellipse cx="2.66034" cy="2.41886" rx="2.66034" ry="2.41886" transform="matrix(-1 0 0 1 527.764 624.264)" fill="#A2C5CC"/>
<ellipse cx="2.66034" cy="2.41886" rx="2.66034" ry="2.41886" transform="matrix(-1 0 0 1 530.424 640.107)" fill="#A2C5CC"/>
<ellipse cx="1.66248" cy="1.51179" rx="1.66248" ry="1.51179" transform="matrix(-1 0 0 1 544.656 599.713)" fill="#A2C5CC"/>
<ellipse cx="1.66248" cy="1.51179" rx="1.66248" ry="1.51179" transform="matrix(-1 0 0 1 535.346 592.457)" fill="#A2C5CC"/>
<ellipse cx="1.66248" cy="1.51179" rx="1.66248" ry="1.51179" transform="matrix(-1 0 0 1 531.355 600.923)" fill="#3F7082"/>
<ellipse cx="1.32998" cy="1.20943" rx="1.32998" ry="1.20943" transform="matrix(-1 0 0 1 527.365 609.389)" fill="#A2C5CC"/>
<ellipse cx="1.66248" cy="1.51179" rx="1.66248" ry="1.51179" transform="matrix(-1 0 0 1 550.643 646.155)" fill="#3B697C"/>
<ellipse cx="1.66248" cy="1.51179" rx="1.66248" ry="1.51179" transform="matrix(-1 0 0 1 550.643 646.155)" fill="#3B697C"/>
<ellipse cx="1.66248" cy="1.51179" rx="1.66248" ry="1.51179" transform="matrix(-1 0 0 1 550.643 646.155)" fill="#3B697C"/>
<ellipse cx="1.66248" cy="1.51179" rx="1.66248" ry="1.51179" transform="matrix(-1 0 0 1 541.332 648.333)" fill="#3B697C"/>
<ellipse cx="1.66248" cy="1.51179" rx="1.66248" ry="1.51179" transform="matrix(-1 0 0 1 541.332 648.333)" fill="#3B697C"/>
<ellipse cx="1.66248" cy="1.51179" rx="1.66248" ry="1.51179" transform="matrix(-1 0 0 1 541.332 648.333)" fill="#3B697C"/>
<ellipse cx="0.997486" cy="0.907071" rx="0.997486" ry="0.907071" transform="matrix(-1 0 0 1 538.008 661.152)" fill="#3B697C"/>
<ellipse cx="0.997486" cy="0.907071" rx="0.997486" ry="0.907071" transform="matrix(-1 0 0 1 538.008 661.152)" fill="#3B697C"/>
<ellipse cx="0.997486" cy="0.907071" rx="0.997486" ry="0.907071" transform="matrix(-1 0 0 1 538.008 661.152)" fill="#A2C5CC"/>
<ellipse cx="1.66248" cy="1.51179" rx="1.66248" ry="1.51179" transform="matrix(-1 0 0 1 548.248 624.264)" fill="#3B697C"/>
<ellipse cx="1.66248" cy="1.51179" rx="1.66248" ry="1.51179" transform="matrix(-1 0 0 1 548.248 624.264)" fill="#3B697C"/>
<ellipse cx="1.66248" cy="1.51179" rx="1.66248" ry="1.51179" transform="matrix(-1 0 0 1 548.248 624.264)" fill="#3B697C"/>
<ellipse cx="0.997486" cy="0.907071" rx="0.997486" ry="0.907071" transform="matrix(-1 0 0 1 553.57 634.545)" fill="#3B697C"/>
<ellipse cx="0.997486" cy="0.907071" rx="0.997486" ry="0.907071" transform="matrix(-1 0 0 1 553.57 634.545)" fill="#3B697C"/>
<ellipse cx="0.997486" cy="0.907071" rx="0.997486" ry="0.907071" transform="matrix(-1 0 0 1 553.57 634.545)" fill="#A2C5CC"/>
<ellipse cx="0.997486" cy="0.907071" rx="0.997486" ry="0.907071" transform="matrix(-1 0 0 1 558.357 630.07)" fill="#3B697C"/>
<ellipse cx="0.997486" cy="0.907071" rx="0.997486" ry="0.907071" transform="matrix(-1 0 0 1 558.357 630.07)" fill="#3B697C"/>
<ellipse cx="0.997486" cy="0.907071" rx="0.997486" ry="0.907071" transform="matrix(-1 0 0 1 558.357 630.07)" fill="#A2C5CC"/>
<ellipse cx="1.66248" cy="1.51179" rx="1.66248" ry="1.51179" transform="matrix(-1 0 0 1 535.346 619.427)" fill="#3B697C"/>
<ellipse cx="1.66248" cy="1.51179" rx="1.66248" ry="1.51179" transform="matrix(-1 0 0 1 535.346 619.427)" fill="#3B697C"/>
<ellipse cx="1.66248" cy="1.51179" rx="1.66248" ry="1.51179" transform="matrix(-1 0 0 1 535.346 619.427)" fill="#3B697C"/>
<ellipse cx="1.39648" cy="1.2699" rx="1.39648" ry="1.2699" transform="matrix(-1 0 0 1 552.637 615.798)" fill="#3B697C"/>
<ellipse cx="1.39648" cy="1.2699" rx="1.39648" ry="1.2699" transform="matrix(-1 0 0 1 552.637 615.798)" fill="#3B697C"/>
<ellipse cx="1.39648" cy="1.2699" rx="1.39648" ry="1.2699" transform="matrix(-1 0 0 1 552.637 615.798)" fill="#3B697C"/>
<ellipse cx="3.39193" cy="3.20499" rx="3.39193" ry="3.20499" transform="matrix(-1 0 0 1 442.102 583.749)" fill="#A2C5CC"/>
<ellipse cx="3.39193" cy="3.20499" rx="3.39193" ry="3.20499" transform="matrix(-1 0 0 1 544.791 636.358)" fill="#A2C5CC"/>
</g>
<mask id="mask5_245_1184" style="mask-type:alpha" maskUnits="userSpaceOnUse" x="331" y="526" width="158" height="158">
<rect width="156.999" height="156.828" transform="matrix(-1 0 0 1 488.838 526.437)" fill="#D9D9D9"/>
</mask>
<g mask="url(#mask5_245_1184)">
<ellipse cx="54.5479" cy="88.1073" rx="54.5479" ry="88.1073" transform="matrix(-1 0 0 1 445.285 531.802)" fill="#B6D3D9"/>
<ellipse cx="30.7678" cy="41.8355" rx="30.7678" ry="41.8355" transform="matrix(-1 0 0 1 484.178 615.782)" fill="#B6D3D9"/>
<path d="M404.011 583.623C404.169 582.335 403.175 582.696 402.158 583.436C401.416 585.186 400.973 585.952 400.666 591.111C400.719 592.375 401.066 593.636 401.773 596.04L402.356 591.282L403.078 585.385C403.163 584.691 403.853 584.912 404.011 583.623Z" fill="#F8E6C7" stroke="#F8E6C7" stroke-width="0.5" stroke-linecap="round"/>
<path d="M346.434 583.056C346.64 581.773 347.5 582.351 348.278 583.301C348.508 585.165 348.724 586.009 347.583 591.071C347.18 592.281 346.493 593.421 345.14 595.583L345.901 590.847L346.845 584.976C346.957 584.285 346.227 584.339 346.434 583.056Z" fill="#F8E6C7" stroke="#F8E6C7" stroke-width="0.5" stroke-linecap="round"/>
<path d="M346.828 630.038C346.622 628.755 345.761 629.333 344.983 630.283C344.754 632.147 344.538 632.99 345.679 638.052C346.082 639.262 346.769 640.403 348.122 642.565L347.36 637.828L346.416 631.957C346.305 631.266 347.034 631.32 346.828 630.038Z" fill="#F8E6C7" stroke="#F8E6C7" stroke-width="0.5" stroke-linecap="round"/>
<path d="M414.969 613.889C414.969 614.188 414.914 615.185 416.121 614.787C417.327 614.388 417.492 609.992 417.327 607.457C416.956 607.154 416.121 606.559 415.792 606.559C415.463 606.559 415.386 606.199 414.969 606.559V609.7V613.889Z" fill="#F8E6C7" stroke="#F8E6C7" stroke-width="0.5" stroke-linecap="round"/>
<path d="M387.087 616.693C387.057 617.989 386.125 617.513 385.223 616.658C384.74 614.835 384.411 614.022 384.85 608.871C385.085 607.624 385.61 606.415 386.657 604.116L386.549 608.902L386.415 614.835C386.4 615.533 387.116 615.397 387.087 616.693Z" fill="#F8E6C7" stroke="#F8E6C7" stroke-width="0.5" stroke-linecap="round"/>
<path d="M358.261 609.484C358.261 609.185 358.316 608.188 357.11 608.587C355.903 608.985 355.739 613.381 355.903 615.917C356.275 616.219 357.11 616.814 357.439 616.814C357.768 616.814 357.845 617.175 358.261 616.814V613.673V609.484Z" fill="#F8E6C7" stroke="#F8E6C7" stroke-width="0.5" stroke-linecap="round"/>
<path d="M404.439 637.383C404.439 637.784 404.494 639.121 403.287 638.586C402.08 638.052 401.916 632.159 402.08 628.76C402.452 628.354 403.287 627.557 403.616 627.557C403.945 627.557 404.022 627.073 404.439 627.557V631.768V637.383Z" fill="#F8E6C7" stroke="#F8E6C7" stroke-width="0.5" stroke-linecap="round"/>
<path d="M404.439 674.545C404.439 674.143 404.494 672.806 403.287 673.341C402.08 673.876 401.916 679.769 402.08 683.168C402.452 683.574 403.287 684.371 403.616 684.371C403.945 684.371 404.022 684.854 404.439 684.371V680.16V674.545Z" fill="#F8E6C7" stroke="#F8E6C7" stroke-width="0.5" stroke-linecap="round"/>
<path d="M359.907 661.318C359.907 661.719 359.852 663.056 361.059 662.522C362.265 661.987 362.43 656.094 362.265 652.695C361.894 652.289 361.059 651.492 360.729 651.492C360.4 651.492 360.323 651.009 359.907 651.492V655.703V661.318Z" fill="#F8E6C7" stroke="#F8E6C7" stroke-width="0.5" stroke-linecap="round"/>
<path d="M374.055 630.565C374.055 630.163 374 628.827 375.207 629.361C376.414 629.896 376.579 635.789 376.414 639.188C376.042 639.594 375.207 640.391 374.878 640.391C374.549 640.391 374.472 640.874 374.055 640.391V636.18V630.565Z" fill="#F8E6C7" stroke="#F8E6C7" stroke-width="0.5" stroke-linecap="round"/>
<path d="M413.99 664.563C414.019 665.859 414.951 665.383 415.854 664.528C416.336 662.705 416.666 661.892 416.227 656.741C415.992 655.494 415.466 654.285 414.419 651.987L414.527 656.772L414.661 662.705C414.676 663.403 413.96 663.267 413.99 664.563Z" fill="#F8E6C7" stroke="#F8E6C7" stroke-width="0.5" stroke-linecap="round"/>
<path d="M389.63 655.358C389.63 655.059 389.685 654.062 388.479 654.461C387.273 654.859 387.108 659.255 387.273 661.791C387.644 662.093 388.479 662.688 388.808 662.688C389.137 662.688 389.214 663.049 389.63 662.688V659.547V655.358Z" fill="#F8E6C7" stroke="#F8E6C7" stroke-width="0.5" stroke-linecap="round"/>
<path d="M372.906 675.285C372.656 679.091 374.221 684.272 375.035 686.387C375.618 684.553 374.894 678.395 374.459 675.545C374.045 673.873 373.156 671.48 372.906 675.285Z" fill="#F2E5C9" stroke="#F7E6C7" stroke-width="0.5"/>
<path d="M462.351 630.749C462.351 630.232 462.406 628.508 461.199 629.198C459.993 629.887 459.828 637.486 459.993 641.869C460.364 642.392 461.199 643.42 461.528 643.42C461.858 643.42 461.934 644.043 462.351 643.42V637.99V630.749Z" fill="#F8E6C7" stroke="#F8E6C7" stroke-width="0.5" stroke-linecap="round"/>
<path d="M472.788 650.261C473.123 654.873 470.612 660.862 469.314 663.279C468.431 660.986 469.647 653.695 470.365 650.336C471.033 648.389 472.452 645.648 472.788 650.261Z" fill="#F2E5C9" stroke="#F7E6C7" stroke-width="0.5"/>
<path d="M447.214 656.673C447.214 656.972 447.269 657.969 446.063 657.57C444.857 657.171 444.692 652.776 444.857 650.24C445.228 649.937 446.063 649.343 446.392 649.343C446.721 649.343 446.798 648.982 447.214 649.343V652.484V656.673Z" fill="#F8E6C7" stroke="#F8E6C7" stroke-width="0.5" stroke-linecap="round"/>
<path d="M457.533 675.134C457.562 676.43 458.494 675.954 459.397 675.099C459.879 673.276 460.208 672.463 459.769 667.312C459.535 666.065 459.009 664.856 457.962 662.558L458.07 667.344L458.204 673.276C458.219 673.974 457.503 673.838 457.533 675.134Z" fill="#F8E6C7" stroke="#F8E6C7" stroke-width="0.5" stroke-linecap="round"/>
<path d="M446.01 686.391C446.01 686.691 445.955 687.688 447.162 687.289C448.368 686.89 448.533 682.494 448.368 679.959C447.997 679.656 447.162 679.061 446.833 679.061C446.504 679.061 446.427 678.701 446.01 679.061V682.203V686.391Z" fill="#F8E6C7" stroke="#F8E6C7" stroke-width="0.5" stroke-linecap="round"/>
<path d="M389.098 560.652C390.063 564.362 389.5 569.711 389.098 571.922C388.177 570.206 387.727 564.026 387.617 561.151C387.709 559.439 388.133 556.942 389.098 560.652Z" fill="#F2E5C9" stroke="#F7E6C7" stroke-width="0.5"/>
<path d="M433.192 584.489C434.157 588.199 433.594 593.547 433.192 595.758C432.271 594.043 431.821 587.863 431.711 584.987C431.803 583.275 432.227 580.779 433.192 584.489Z" fill="#F2E5C9" stroke="#F7E6C7" stroke-width="0.5"/>
<path d="M432.708 629.53C432.684 633.342 430.749 638.419 429.785 640.481C429.335 638.617 430.501 632.515 431.14 629.697C431.672 628.053 432.732 625.718 432.708 629.53Z" fill="#F2E5C9" stroke="#F7E6C7" stroke-width="0.5"/>
<path d="M359.906 562.013C359.906 561.714 359.961 560.717 358.754 561.116C357.548 561.515 357.383 565.91 357.548 568.446C357.919 568.749 358.754 569.343 359.083 569.343C359.412 569.343 359.489 569.704 359.906 569.343V566.202V562.013Z" fill="#F8E6C7" stroke="#F8E6C7" stroke-width="0.5" stroke-linecap="round"/>
<path d="M402.025 545.758C402.025 545.459 402.08 544.462 400.873 544.86C399.667 545.259 399.502 549.655 399.667 552.19C400.038 552.493 400.873 553.088 401.202 553.088C401.532 553.088 401.608 553.448 402.025 553.088V549.947V545.758Z" fill="#F8E6C7" stroke="#F8E6C7" stroke-width="0.5" stroke-linecap="round"/>
<path d="M375.591 586.048C375.591 585.749 375.646 584.752 374.44 585.15C373.234 585.549 373.069 589.945 373.234 592.48C373.605 592.783 374.44 593.378 374.769 593.378C375.098 593.378 375.175 593.738 375.591 593.378V590.237V586.048Z" fill="#F8E6C7" stroke="#F8E6C7" stroke-width="0.5" stroke-linecap="round"/>
<path d="M414.969 559.718C414.969 559.419 414.914 558.422 416.121 558.821C417.327 559.22 417.492 563.616 417.327 566.151C416.956 566.454 416.121 567.048 415.792 567.048C415.463 567.048 415.386 567.409 414.969 567.048V563.907V559.718Z" fill="#F8E6C7" stroke="#F8E6C7" stroke-width="0.5" stroke-linecap="round"/>
<path d="M376.409 543.347C376.567 542.058 375.574 542.419 374.556 543.159C373.815 544.909 373.372 545.676 373.065 550.835C373.118 552.099 373.464 553.36 374.171 555.764L374.754 551.006L375.476 545.109C375.561 544.415 376.251 544.635 376.409 543.347Z" fill="#F8E6C7" stroke="#F8E6C7" stroke-width="0.5" stroke-linecap="round"/>
</g>
<mask id="mask6_245_1184" style="mask-type:alpha" maskUnits="userSpaceOnUse" x="382" y="598" width="116" height="66">
<rect x="498" y="663.871" width="115.507" height="65.7828" transform="rotate(180 498 663.871)" fill="#D9D9D9"/>
</mask>
<g mask="url(#mask6_245_1184)">
<ellipse cx="14.544" cy="14.9191" rx="14.544" ry="14.9191" transform="matrix(-1 0 0 1 496.867 642.125)" fill="#34578D"/>
<ellipse cx="26.9125" cy="23.3959" rx="26.9125" ry="23.3959" transform="matrix(-1 0 0 1 482.324 616.13)" fill="#34578D"/>
<ellipse cx="26.9125" cy="26.4476" rx="26.9125" ry="26.4476" transform="matrix(-1 0 0 1 445.404 601.324)" fill="#34578D"/>
<ellipse cx="26.9125" cy="23.3959" rx="26.9125" ry="23.3959" transform="matrix(-1 0 0 1 441.053 632.405)" fill="#34578D"/>
<ellipse cx="26.9125" cy="23.3959" rx="26.9125" ry="23.3959" transform="matrix(-1 0 0 1 474.865 634.552)" fill="#34578D"/>
<ellipse cx="3.63453" cy="1.89404" rx="3.63453" ry="1.89404" transform="matrix(-0.962741 0.270425 0.321712 0.946838 459.924 648.116)" fill="#BA6D74"/>
<ellipse cx="3.56016" cy="1.90994" rx="3.56016" ry="1.90994" transform="matrix(-0.903817 -0.427919 -0.496977 0.867764 457.338 653.876)" fill="#BA6D74"/>
<ellipse cx="3.61927" cy="2.36779" rx="3.61927" ry="2.36779" transform="matrix(-0.941256 -0.337694 -0.398106 0.917339 454.107 646.717)" fill="#BA6D74"/>
<ellipse cx="3.61927" cy="2.36779" rx="3.61927" ry="2.36779" transform="matrix(-0.941256 -0.337694 -0.398106 0.917339 439.189 630.555)" fill="#BA6D74"/>
<ellipse cx="3.61927" cy="2.36779" rx="3.61927" ry="2.36779" transform="matrix(-0.941256 -0.337694 -0.398106 0.917339 437.326 641.972)" fill="#BA6D74"/>
<ellipse cx="3.61927" cy="2.36779" rx="3.61927" ry="2.36779" transform="matrix(-0.941256 -0.337694 -0.398106 0.917339 420.295 624.453)" fill="#BA6D74"/>
<ellipse cx="3.61927" cy="2.36779" rx="3.61927" ry="2.36779" transform="matrix(-0.941256 -0.337694 -0.398106 0.917339 424.148 644.458)" fill="#BA6D74"/>
<ellipse cx="3.61927" cy="2.36779" rx="3.61927" ry="2.36779" transform="matrix(-0.941256 -0.337694 -0.398106 0.917339 426.635 659.038)" fill="#BA6D74"/>
<ellipse cx="3.61927" cy="2.36779" rx="3.61927" ry="2.36779" transform="matrix(0.941256 -0.337694 0.398106 0.917339 423.654 651.916)" fill="#BA6D74"/>
<ellipse cx="3.61927" cy="2.36779" rx="3.61927" ry="2.36779" transform="matrix(0.941256 -0.337694 0.398106 0.917339 420.299 636.659)" fill="#BA6D74"/>
<ellipse cx="3.61927" cy="2.36779" rx="3.61927" ry="2.36779" transform="matrix(0.941256 -0.337694 0.398106 0.917339 414.953 616.992)" fill="#BA6D74"/>
<ellipse cx="3.05067" cy="1.8411" rx="3.05067" ry="1.8411" transform="matrix(0.941256 -0.337694 0.398106 0.917339 417.936 626.487)" fill="#BA6D74"/>
<ellipse cx="2.87334" cy="1.95656" rx="2.87334" ry="1.95656" transform="matrix(0.514718 -0.857359 0.895746 0.444567 405.131 626.822)" fill="#BA6D74"/>
<ellipse cx="2.26003" cy="1.66141" rx="2.26003" ry="1.66141" transform="matrix(0.514718 -0.857359 0.895746 0.444567 411.223 633.491)" fill="#BA6D74"/>
<ellipse cx="3.00228" cy="1.54182" rx="3.00228" ry="1.54182" transform="matrix(0.999841 0.0178191 0.021553 -0.999768 402.912 632.529)" fill="#BA6D74"/>
<ellipse cx="3.61927" cy="2.36779" rx="3.61927" ry="2.36779" transform="matrix(-0.941256 -0.337694 -0.398106 0.917339 441.055 655.307)" fill="#BA6D74"/>
<ellipse cx="3.61927" cy="2.36779" rx="3.61927" ry="2.36779" transform="matrix(0.941256 -0.337694 0.398106 0.917339 435.465 645.814)" fill="#BA6D74"/>
<ellipse cx="3.61927" cy="2.36779" rx="3.61927" ry="2.36779" transform="matrix(0.941256 -0.337694 0.398106 0.917339 437.951 634.737)" fill="#BA6D74"/>
<ellipse cx="3.12052" cy="1.62733" rx="3.12052" ry="1.62733" transform="matrix(-0.941256 -0.337694 -0.398106 0.917339 457.961 638.695)" fill="#BA6D74"/>
<ellipse cx="3.15485" cy="1.60652" rx="3.15485" ry="1.60652" transform="matrix(-0.995826 0.0912755 0.110198 0.99391 463.945 637.266)" fill="#BA6D74"/>
<ellipse cx="3.61927" cy="2.36779" rx="3.61927" ry="2.36779" transform="matrix(-0.941256 -0.337694 -0.398106 0.917339 464.178 630.555)" fill="#BA6D74"/>
<ellipse cx="3.61927" cy="2.36779" rx="3.61927" ry="2.36779" transform="matrix(-0.941256 -0.337694 -0.398106 0.917339 456.717 660.733)" fill="#BA6D74"/>
<ellipse cx="3.59884" cy="2.38306" rx="3.59884" ry="2.38306" transform="matrix(-0.911235 0.411886 0.479738 0.877412 468.602 625.172)" fill="#BA6D74"/>
<path d="M482.327 649.02C482.327 652.68 484.481 660.566 485.559 664.052" stroke="#BA6D74" stroke-width="2" stroke-linecap="round"/>
<path d="M489.783 653.315C488.491 655.666 487.38 661.453 486.987 664.053" stroke="#BA6D74" stroke-width="2" stroke-linecap="round"/>
<ellipse cx="2.60133" cy="1.66009" rx="2.60133" ry="1.66009" transform="matrix(-0.983103 -0.183052 -0.219727 0.975561 483.195 652.912)" fill="#BA6D74"/>
<ellipse cx="2.55397" cy="1.6954" rx="2.55397" ry="1.6954" transform="matrix(-0.886931 0.461902 0.533014 0.846106 491.953 655.623)" fill="#BA6D74"/>
<ellipse cx="1.23962" cy="1.13383" rx="1.23962" ry="1.13383" transform="matrix(-0.987284 -0.158963 -0.191172 0.981557 488.416 655.179)" fill="#BA6D74"/>
<path d="M409.565 652.198C408.586 654.84 408.038 661.013 407.886 663.769" stroke="#BA6D74" stroke-width="2" stroke-linecap="round"/>
<path d="M413.824 656.955C412.258 658.365 409.905 662.297 408.924 664.086" stroke="#BA6D74" stroke-width="2" stroke-linecap="round"/>
<ellipse cx="1.97378" cy="1.27734" rx="1.97378" ry="1.27734" transform="matrix(-0.874953 -0.461993 -0.546289 0.852006 409.154 655.201)" fill="#BA6D74"/>
<ellipse cx="1.94301" cy="1.29981" rx="1.94301" ry="1.29981" transform="matrix(-1.00767 0.179389 0.208835 0.95121 414.779 659.103)" fill="#BA6D74"/>
<ellipse cx="0.940466" cy="0.872552" rx="0.940466" ry="0.872552" transform="matrix(-0.887556 -0.440351 -0.521372 0.865723 412.334 657.997)" fill="#BA6D74"/>
<ellipse cx="2.60133" cy="1.66009" rx="2.60133" ry="1.66009" transform="matrix(-0.983103 -0.183052 -0.219727 0.975561 474.494 649.069)" fill="#BA6D74"/>
<ellipse cx="2.56002" cy="1.69096" rx="2.56002" ry="1.69096" transform="matrix(-0.900105 -0.435673 -0.50526 0.862967 471.498 655.633)" fill="#BA6D74"/>
<ellipse cx="2.57494" cy="1.67994" rx="2.57494" ry="1.67994" transform="matrix(-0.931394 0.364014 0.427402 0.904062 474.012 658.408)" fill="#BA6D74"/>
<ellipse cx="2.57494" cy="1.67994" rx="2.57494" ry="1.67994" transform="matrix(-0.931394 0.364014 0.427402 0.904062 475.918 639.867)" fill="#BA6D74"/>
<path d="M473.748 637.832C471.61 642.217 470.33 647.759 469.957 649.982V664.166" stroke="#BA6D74" stroke-width="2" stroke-linecap="round"/>
<ellipse cx="3.56034" cy="2.41133" rx="3.56034" ry="2.41133" transform="matrix(-0.850258 -0.526366 -0.599407 0.800444 471.883 644.745)" fill="#BA6D74"/>
<ellipse cx="2.59479" cy="1.56633" rx="2.59479" ry="1.56633" transform="matrix(-0.966375 -0.246465 -0.321024 0.950841 403.42 653.814)" fill="#BA6D74"/>
<ellipse cx="2.5306" cy="1.61648" rx="2.5306" ry="1.61648" transform="matrix(-0.869495 -0.481719 -0.60437 0.805552 399.867 659.736)" fill="#BA6D74"/>
<ellipse cx="2.55384" cy="1.59864" rx="2.55384" ry="1.59864" transform="matrix(-0.967404 0.272712 0.365846 0.923838 402.133 662.524)" fill="#BA6D74"/>
<ellipse cx="2.55384" cy="1.59864" rx="2.55384" ry="1.59864" transform="matrix(-0.967392 0.272756 0.365794 0.92386 405.629 645.302)" fill="#BA6D74"/>
<path d="M403.641 643.232C401.133 647.178 399.38 652.272 398.817 654.325L397.597 667.611" stroke="#BA6D74" stroke-width="2" stroke-linecap="round"/>
<ellipse cx="3.50146" cy="2.32003" rx="3.50146" ry="2.32003" transform="matrix(-0.815514 -0.566733 -0.692407 0.732103 401.188 649.567)" fill="#BA6D74"/>
<path d="M463.369 624.795C464.937 631.479 460.982 636.733 458.809 638.524C451.346 642.348 452.973 649.071 454.719 651.955C455.54 652.445 457.135 653.854 456.948 655.564C456.761 657.273 455.436 662.545 454.797 664.967" stroke="#BA6D74" stroke-width="2" stroke-linecap="round"/>
<path d="M435.433 625.239C438.955 629.505 439.408 634.435 439.195 636.367L437.206 639.524L436.226 640.921L436.035 642.216C435.717 646.916 440.765 654.157 441.24 657.611L441.841 664.005" stroke="#BA6D74" stroke-width="2" stroke-linecap="round"/>
<path d="M414.113 615.139C417.956 617.243 423.896 648.879 426.387 664.433" stroke="#BA6D74" stroke-width="2" stroke-linecap="round"/>
<path d="M420.17 635.57C413.905 638.057 406.413 627.941 403.451 622.573" stroke="#BA6D74" stroke-width="2" stroke-linecap="round"/>
</g>
<path d="M433.182 588.487H457.155C454.989 654.057 455.607 681.061 465.366 683.107H433.182C452.859 663.43 445.565 628.915 433.182 588.487Z" fill="#F7E6C6"/>
<path d="M448.413 682.992C451.389 675.355 450.721 672.08 442.453 669.285" stroke="#FBAEAC" stroke-linecap="round"/>
<path d="M444.307 664.601C452.575 667.395 457.349 674.893 454.373 682.53" stroke="#FBAEAC" stroke-linecap="round"/>
<path d="M445.434 647.134C453.702 649.929 455.831 654.884 456.427 660.784" stroke="#FBAEAC" stroke-linecap="round"/>
<path d="M455.83 647.423C454.704 645.283 453.512 637.533 455.83 634.757" stroke="#FBAEAC" stroke-linecap="round"/>
<path d="M456.031 628.683C444.575 632.616 458.747 637.937 445.303 643.663" stroke="#FBAEAC" stroke-linecap="round"/>
<path d="M446.076 653.303C457.533 657.236 443.361 662.557 456.804 668.283" stroke="#FBAEAC" stroke-linecap="round"/>
<path d="M437.951 594.965C448.945 601.848 445.103 622.727 456.03 625.792" stroke="#FBAEAC" stroke-linecap="round"/>
<path d="M448.666 617.513C442.943 621.372 444.328 630.292 443.845 630.302" stroke="#FBAEAC" stroke-linecap="round"/>
<path d="M450.98 623.365C447.549 624.818 450.863 638.169 444.704 637.591" stroke="#FBAEAC" stroke-linecap="round"/>
<path d="M443.247 594.965C454.24 601.847 445.101 618.215 456.028 621.28" stroke="#FBAEAC" stroke-linecap="round"/>
<path d="M447.885 600.286C448.613 597.741 458.481 596.642 455.666 593.215" stroke="#FBAEAC" stroke-linecap="round"/>
<path d="M449.266 604.946C449.994 602.401 456.693 602.484 456.693 598.378" stroke="#FBAEAC" stroke-linecap="round"/>
<ellipse cx="447.151" cy="562.901" rx="51.588" ry="41.4947" fill="#184D62"/>
<ellipse cx="449.203" cy="532.007" rx="40.926" ry="47.1888" fill="#184D62"/>
<path d="M416.024 504.991C413.64 512.988 420.593 519.81 423.64 520.157C431.198 518.188 430.927 514.724 429.136 504.484" stroke="#42B2FC" stroke-linecap="round"/>
<path d="M429.466 503.559C428.606 508.648 431.652 520.794 437.194 520.215C441.074 519.811 443.365 513.834 441.85 503.559" stroke="#42B2FC" stroke-linecap="round"/>
<path d="M455.895 502.669C456.486 512.986 455.162 518.192 450.394 520.678C445.162 520.678 441.794 515.248 441.917 503.617" stroke="#42B2FC" stroke-linecap="round"/>
<path d="M468.604 502.402C469.838 512.998 465.238 516.68 462.784 517.197C456.413 516.069 455.55 512.37 455.998 503.523" stroke="#42B2FC" stroke-linecap="round"/>
<path d="M479.453 501.188C480.933 513.885 477.744 519.174 474.433 518.743C468.414 517.248 467.984 512.938 468.138 502.369" stroke="#42B2FC" stroke-linecap="round"/>
<path d="M420.328 498.994C419.401 505.124 420.593 505.698 423.64 506.045C431.199 504.076 431.59 501.363 429.799 491.123" stroke="#42B2FC" stroke-linecap="round"/>
<path d="M429.467 491.181C429.467 502.37 434.619 505.791 437.194 506.103C443.586 504.332 443.829 495.933 442.314 486.728" stroke="#42B2FC" stroke-linecap="round"/>
<path d="M454.434 485.976C459.136 492.164 454.434 507.433 450.602 507.862C444.128 505.843 443.033 500.156 442.94 486.671" stroke="#42B2FC" stroke-linecap="round"/>
<path d="M468.606 490.937C469.841 501.533 465.239 502.567 462.784 503.083C456.414 501.956 455.55 498.257 455.998 489.409" stroke="#42B2FC" stroke-linecap="round"/>
<path d="M478.34 499.175C479.002 503.455 477.744 505.061 474.432 504.63C471.121 504.199 467.413 497.704 468.87 490.937" stroke="#42B2FC" stroke-linecap="round"/>
<path d="M409.666 521.834C409.666 534.281 416.619 538.086 419.666 538.433C427.225 536.464 425.361 525.587 425.361 521.834" stroke="#42B2FC" stroke-linecap="round"/>
<path d="M425.492 521.834C425.492 534.324 430.644 538.143 433.22 538.491C439.612 536.515 440.054 532.11 438.54 521.834" stroke="#42B2FC" stroke-linecap="round"/>
<path d="M452.17 523.085C453.479 534.318 448.553 538.225 445.926 538.775C439.111 537.586 438.191 533.665 438.68 524.284" stroke="#42B2FC" stroke-linecap="round"/>
<path d="M488.205 519.984C489.622 532.144 485.078 536.305 482.629 536.865C476.229 535.49 475.302 531.239 475.599 521.105" stroke="#42B2FC" stroke-linecap="round"/>
<path d="M464.773 521.911C465.9 531.582 461.268 534.982 458.81 535.473C452.457 534.492 451.631 531.119 452.167 523.032" stroke="#42B2FC" stroke-linecap="round"/>
<path d="M475.479 519.463C476.958 532.161 473.769 537.45 470.458 537.019C464.44 535.524 464.009 531.213 464.163 520.645" stroke="#42B2FC" stroke-linecap="round"/>
<path d="M403.971 540.912C403.971 553.358 409.997 555.436 413.043 555.783C418.739 554.36 420.063 545.515 419.335 539.184" stroke="#42B2FC" stroke-linecap="round"/>
<path d="M418.871 539.184C418.871 551.674 424.023 555.493 426.599 555.841C432.99 553.865 433.433 549.46 431.919 539.184" stroke="#42B2FC" stroke-linecap="round"/>
<path d="M445.549 540.436C446.858 551.668 441.932 555.576 439.305 556.126C432.49 554.936 431.57 551.015 432.059 541.635" stroke="#42B2FC" stroke-linecap="round"/>
<path d="M492.247 543.093C493.969 547.818 492.262 552.105 489.635 552.655C482.82 551.465 482.247 544.244 481.651 537.338" stroke="#42B2FC" stroke-linecap="round"/>
<path d="M481.584 537.333C483.001 549.493 478.457 553.654 476.008 554.214C469.608 552.839 468.68 548.588 468.978 538.454" stroke="#42B2FC" stroke-linecap="round"/>
<path d="M458.15 539.261C459.277 548.932 454.645 552.332 452.187 552.823C445.833 551.842 445.008 548.469 445.544 540.382" stroke="#42B2FC" stroke-linecap="round"/>
<path d="M468.857 536.814C470.337 549.512 467.148 554.801 463.837 554.37C457.819 552.875 457.388 548.564 457.542 537.996" stroke="#42B2FC" stroke-linecap="round"/>
<path d="M396.752 557.346C396.752 569.142 403.439 572.748 406.783 573.077C415.08 571.211 415.655 567.051 413.689 557.346" stroke="#42B2FC" stroke-linecap="round"/>
<path d="M403.906 540.913C406.025 552.827 399.899 556.697 396.555 557.026" stroke="#42B2FC" stroke-linecap="round"/>
<path d="M413.309 556.188C413.309 568.071 418.956 571.704 421.779 572.036C428.786 570.156 429.271 565.965 427.611 556.188" stroke="#42B2FC" stroke-linecap="round"/>
<path d="M442.761 554.824C444.069 566.056 438.755 569.999 435.934 570.566C428.636 569.419 427.281 557.172 427.678 556.073" stroke="#42B2FC" stroke-linecap="round"/>
<path d="M490.856 552.891C492.165 564.124 490.525 569.317 485.41 569.072C478.595 567.882 477.321 563.255 477.81 553.875" stroke="#42B2FC" stroke-linecap="round"/>
<path d="M497.281 567.525C490.465 566.335 490.567 563.256 491.056 553.875" stroke="#42B2FC" stroke-linecap="round"/>
<path d="M477.411 553.723C478.828 565.883 476.731 568.923 474.282 569.483C467.882 568.108 466.955 563.858 467.253 553.723" stroke="#42B2FC" stroke-linecap="round"/>
<path d="M455.492 554.685C456.619 564.356 451.986 567.755 449.529 568.246C443.175 567.265 442.35 563.892 442.886 555.805" stroke="#42B2FC" stroke-linecap="round"/>
<path d="M466.748 553.089C468.228 565.787 464.844 568.755 461.604 568.317C455.714 566.811 455.285 561.666 455.408 551.101" stroke="#42B2FC" stroke-linecap="round"/>
<path d="M405.031 573.078C405.031 584.873 411.555 587.497 414.899 587.826C420.461 586.438 423.206 583.592 421.239 573.887" stroke="#42B2FC" stroke-linecap="round"/>
<path d="M421.652 573.425C421.652 585.307 427.299 588.941 430.123 589.272C437.129 587.392 437.615 583.201 435.954 573.425" stroke="#42B2FC" stroke-linecap="round"/>
<path d="M451.106 572.06C452.415 583.292 447.1 587.235 444.279 587.802C436.982 586.655 435.627 574.408 436.024 573.309" stroke="#42B2FC" stroke-linecap="round"/>
<path d="M491.453 583.438C490.459 582.744 486.287 578.592 485.812 571.056" stroke="#42B2FC" stroke-linecap="round"/>
<path d="M485.758 570.959C487.175 583.118 485.079 586.158 482.63 586.719C476.23 585.344 475.303 581.093 475.6 570.959" stroke="#42B2FC" stroke-linecap="round"/>
<path d="M463.836 571.92C464.963 581.592 460.33 584.991 457.873 585.482C451.519 584.501 450.694 581.128 451.23 573.041" stroke="#42B2FC" stroke-linecap="round"/>
<path d="M475.092 570.326C476.571 583.023 473.187 585.991 469.948 585.554C464.058 584.047 463.629 578.903 463.752 568.337" stroke="#42B2FC" stroke-linecap="round"/>
<path d="M429.865 589.84C429.865 595.051 435.176 596.644 437.832 596.789C444.421 595.965 444.671 592.053 443.11 587.767" stroke="#42B2FC" stroke-linecap="round"/>
<path d="M416.023 587.767C416.023 591.063 422.513 593.608 423.97 593.897C427.811 593.897 430.328 591.295 429.599 589.328" stroke="#42B2FC" stroke-linecap="round"/>
<path d="M481.254 586.841C481.254 589.097 477.413 590.543 475.956 590.832C473.704 590.543 470.658 587.362 471.387 585.396" stroke="#42B2FC" stroke-linecap="round"/>
<path d="M456.95 585.627C459.003 588.287 455.655 597.388 451.697 597.588C445.008 596.647 443.877 593.998 443.781 587.714" stroke="#42B2FC" stroke-linecap="round"/>
<path d="M471.452 585.627C472.728 590.564 466.816 595.121 464.28 595.362C457.699 594.836 457.546 589.749 458.009 585.627" stroke="#42B2FC" stroke-linecap="round"/>
<rect width="1527" height="116" transform="matrix(-1 0 0 1 1527 663)" fill="#C4D9EE"/>
<rect width="1538" height="67" transform="matrix(-1 0 0 1 1537 663)" fill="#F7E6C7"/>
<path d="M304.93 736C358.694 769 346.236 774.5 390.821 772" stroke="#F7E6C7" stroke-width="6" stroke-linecap="round"/>
<path d="M387.994 772H1397.99" stroke="#F7E6C7" stroke-width="6" stroke-linecap="round"/>
<path d="M1365.7 731.501C1400.13 753.237 1450.04 771.268 1387.57 771.898" stroke="#F7E6C7" stroke-width="6" stroke-linecap="round"/>
<path d="M-905.998 776H104.002" stroke="#F7E6C7" stroke-width="6" stroke-linecap="round"/>
<path d="M87.0018 726C100.002 744 156.051 775.267 93.573 775.897" stroke="#F7E6C7" stroke-width="6" stroke-linecap="round"/>
<rect width="1527" height="31" transform="matrix(-1 0 0 1 1527 706)" fill="#92A9BF"/>
<line y1="-0.5" x2="14.8813" y2="-0.5" transform="matrix(0.049267 -0.998786 -0.995123 -0.0986462 1356.18 720.838)" stroke="#230545"/>
<line y1="-0.5" x2="16.0003" y2="-0.5" transform="matrix(0.0123137 -0.999924 -0.999694 -0.0247336 1318.61 736.837)" stroke="#230545"/>
<line y1="-0.5" x2="14.8813" y2="-0.5" transform="matrix(-0.049267 -0.998786 -0.995123 0.0986462 1432 720.84)" stroke="#230545"/>
<line y1="-0.5" x2="15.9952" y2="-0.5" transform="matrix(-0.0246294 -0.999697 -0.998777 0.0494369 1391.46 736.835)" stroke="#230545"/>
<line y1="-0.5" x2="14.901" y2="-0.5" transform="matrix(0 1 1 0 1506.72 705.956)" stroke="#230545"/>
<line y1="-0.5" x2="15.9952" y2="-0.5" transform="matrix(0.0246294 -0.999697 -0.998777 -0.0494369 1468.68 736.835)" stroke="#230545"/>
<line y1="-0.5" x2="16.0008" y2="-0.5" transform="matrix(0 -1 -1 0 1524.37 736.839)" stroke="#230545"/>
<line y1="-0.5" x2="14.8722" y2="-0.5" transform="matrix(0.0616066 -0.9981 -0.992398 -0.123066 1280.99 720.828)" stroke="#230545"/>
<line y1="-0.5" x2="15.9699" y2="-0.5" transform="matrix(-0.0616066 -0.9981 -0.992398 0.123066 1244.1 736.809)" stroke="#230545"/>
<line y1="-0.5" x2="14.8448" y2="-0.5" transform="matrix(0.0863022 -0.996269 -0.985191 -0.17146 1205.72 720.801)" stroke="#230545"/>
<line y1="-0.5" x2="15.989" y2="-0.5" transform="matrix(-0.0369488 -0.999317 -0.997252 0.0740798 1171.34 736.83)" stroke="#230545"/>
<line y1="-0.5" x2="14.8813" y2="-0.5" transform="matrix(0.049267 -0.998786 -0.995123 -0.0986462 978.328 720.839)" stroke="#230545"/>
<line y1="-0.5" x2="14.901" y2="-0.5" transform="matrix(0 1 1 0 923.473 705.957)" stroke="#230545"/>
<line y1="-0.5" x2="16.0003" y2="-0.5" transform="matrix(0.0123137 -0.999924 -0.999694 -0.0247336 950.846 736.839)" stroke="#230545"/>
<line y1="-0.5" x2="14.8448" y2="-0.5" transform="matrix(0.0863022 -0.996269 -0.985191 -0.17146 1038.31 720.803)" stroke="#230545"/>
<line y1="-0.5" x2="15.9952" y2="-0.5" transform="matrix(-0.0246294 -0.999697 -0.998777 0.0494369 1008.56 736.837)" stroke="#230545"/>
<line y1="-0.5" x2="16.0008" y2="-0.5" transform="matrix(0 -1 -1 0 1063.85 736.842)" stroke="#230545"/>
<line y1="-0.5" x2="14.901" y2="-0.5" transform="matrix(0 1 1 0 1146.54 705.957)" stroke="#230545"/>
<line y1="-0.5" x2="14.901" y2="-0.5" transform="matrix(0 1 1 0 1096.38 705.957)" stroke="#230545"/>
<line y1="-0.5" x2="16.0008" y2="-0.5" transform="matrix(0 -1 -1 0 1121.28 736.841)" stroke="#230545"/>
<line y1="-0.5" x2="14.8722" y2="-0.5" transform="matrix(0.0616066 -0.9981 -0.992398 -0.123066 862.75 720.83)" stroke="#230545"/>
<line y1="-0.5" x2="15.9952" y2="-0.5" transform="matrix(-0.0246259 -0.999697 -0.998777 0.0494439 891.148 736.836)" stroke="#230545"/>
<line y1="-0.5" x2="14.8448" y2="-0.5" transform="matrix(0.0863022 -0.996269 -0.985191 -0.17146 802.625 720.803)" stroke="#230545"/>
<line y1="-0.5" x2="14.901" y2="-0.5" transform="matrix(0 1 1 0 763.195 705.957)" stroke="#230545"/>
<line y1="-0.5" x2="15.989" y2="-0.5" transform="matrix(-0.0369488 -0.999317 -0.997252 0.0740798 783.391 736.83)" stroke="#230545"/>
<line y1="-0.5" x2="16.0008" y2="-0.5" transform="matrix(0 -1 -1 0 833.533 736.841)" stroke="#230545"/>
<line y1="-0.5" x2="14.8813" y2="-0.5" transform="matrix(0.0492739 -0.998785 -0.995124 -0.0986324 565.068 720.84)" stroke="#230545"/>
<line y1="-0.5" x2="16.0003" y2="-0.5" transform="matrix(0.0123137 -0.999924 -0.999694 -0.0247336 542.643 736.838)" stroke="#230545"/>
<line y1="-0.5" x2="15.989" y2="-0.5" transform="matrix(-0.0369436 -0.999317 -0.997252 0.0740902 595.998 736.829)" stroke="#230545"/>
<line y1="-0.5" x2="14.8448" y2="-0.5" transform="matrix(0.0863022 -0.996269 -0.985191 -0.17146 627.582 720.802)" stroke="#230545"/>
<line y1="-0.5" x2="16.0008" y2="-0.5" transform="matrix(0 -1 -1 0 663.221 736.841)" stroke="#230545"/>
<line y1="-0.5" x2="14.901" y2="-0.5" transform="matrix(0 1 1 0 700.791 705.957)" stroke="#230545"/>
<line y1="-0.5" x2="15.9952" y2="-0.5" transform="matrix(0.0246259 -0.999697 -0.998777 -0.0494439 730.59 736.836)" stroke="#230545"/>
<line y1="-0.5" x2="14.8722" y2="-0.5" transform="matrix(0.0615979 -0.998101 -0.992396 -0.123083 507.557 720.831)" stroke="#230545"/>
<line y1="-0.5" x2="15.9699" y2="-0.5" transform="matrix(-0.0616066 -0.9981 -0.992398 0.123066 475.711 736.811)" stroke="#230545"/>
<line y1="-0.5" x2="14.8448" y2="-0.5" transform="matrix(0.08629 -0.99627 -0.985187 -0.171484 432.285 720.804)" stroke="#230545"/>
<line y1="-0.5" x2="15.989" y2="-0.5" transform="matrix(-0.0369488 -0.999317 -0.997252 0.0740798 397.902 736.832)" stroke="#230545"/>
<line y1="-0.5" x2="14.8813" y2="-0.5" transform="matrix(-0.0492739 0.998785 0.995124 0.0986324 170.186 721.957)" stroke="#230545"/>
<line y1="-0.5" x2="16.0003" y2="-0.5" transform="matrix(-0.0123137 0.999924 0.999694 0.0247336 207.756 705.958)" stroke="#230545"/>
<line y1="-0.5" x2="14.8813" y2="-0.5" transform="matrix(0.049267 0.998786 0.995123 -0.0986462 94.3613 721.957)" stroke="#230545"/>
<line y1="-0.5" x2="15.9952" y2="-0.5" transform="matrix(0.0246294 0.999697 0.998777 -0.0494369 134.896 705.961)" stroke="#230545"/>
<line y1="-0.5" x2="14.901" y2="-0.5" transform="matrix(0 -1 -1 0 19.6387 736.84)" stroke="#230545"/>
<line y1="-0.5" x2="15.9952" y2="-0.5" transform="matrix(-0.0246294 0.999697 0.998777 0.0494369 57.6777 705.961)" stroke="#230545"/>
<line y1="-0.5" x2="16.0008" y2="-0.5" transform="matrix(0 1 1 0 5.99219 705.956)" stroke="#230545"/>
<line y1="-0.5" x2="14.8722" y2="-0.5" transform="matrix(-0.0615979 0.998101 0.992396 0.123083 245.371 721.968)" stroke="#230545"/>
<line y1="-0.5" x2="15.9699" y2="-0.5" transform="matrix(0.0616066 0.9981 0.992398 -0.123066 282.264 705.986)" stroke="#230545"/>
<line y1="-0.5" x2="14.8448" y2="-0.5" transform="matrix(-0.08629 0.99627 0.985187 0.171484 320.639 721.995)" stroke="#230545"/>
<line y1="-0.5" x2="15.989" y2="-0.5" transform="matrix(0.0369488 0.999317 0.997252 -0.0740798 355.021 705.966)" stroke="#230545"/>
<line x1="1527" y1="722.368" x2="0.000473738" y2="723" stroke="#230545" stroke-width="2"/>
<path d="M322.545 605.149H318.657L317.685 669.339H322.545V605.149Z" fill="#AF3856"/>
<path d="M323.517 604.385L322.545 605.149V669.339L323.76 668.179L323.517 604.385Z" fill="#230545"/>
<path d="M323.517 604.385L322.545 605.149V669.339L323.76 668.179L323.517 604.385Z" fill="#923258"/>
<path d="M323.516 604.385H319.628L318.656 605.149H322.544L323.516 604.385Z" fill="#923258"/>
<path d="M368.712 605.148H364.825V669.338H369.441L368.712 605.148Z" fill="#AF3856"/>
<path d="M369.44 604.384L368.712 604.964L369.44 669.339L370.412 667.889L369.44 604.384Z" fill="#230545"/>
<path d="M369.44 604.384L368.712 604.964L369.44 669.339L370.412 667.889L369.44 604.384Z" fill="#923258"/>
<path d="M369.441 604.385L365.797 604.095L364.825 605.149H368.712L369.441 604.385Z" fill="#923258"/>
<path d="M312.828 656.963H308.941L308.455 680.938H312.828V656.963Z" fill="#AF3856"/>
<path d="M313.799 656.677L312.827 656.963V680.938L313.799 680.466V656.677Z" fill="#230545"/>
<path d="M313.799 656.677L312.827 656.963V680.938L313.799 680.466V656.677Z" fill="#923258"/>
<path d="M313.799 656.677H309.911L308.939 656.963H312.827L313.799 656.677Z" fill="#AF3856"/>
<path d="M376.975 656.963H373.087L372.115 680.938H376.975V656.963Z" fill="#AF3856"/>
<path d="M377.945 656.677L376.973 656.963V680.938L378.188 680.358L377.945 656.677Z" fill="#230545"/>
<path d="M377.945 656.677L376.973 656.963V680.938L378.188 680.358L377.945 656.677Z" fill="#923258"/>
<path d="M377.945 656.677H374.058L373.086 656.963H376.973L377.945 656.677Z" fill="#AF3856"/>
<path d="M382.316 607.284L305.536 606.415V615.114L382.316 615.984V607.284Z" fill="#742D5B"/>
<ellipse cx="1.2147" cy="1.43281" rx="1.2147" ry="1.43281" transform="matrix(-1 0 0 1 368.225 609.981)" fill="#230545"/>
<ellipse cx="1.2147" cy="1.43281" rx="1.2147" ry="1.43281" transform="matrix(-1 0 0 1 368.225 609.981)" fill="#230545"/>
<ellipse cx="1.2147" cy="1.43281" rx="1.2147" ry="1.43281" transform="matrix(-1 0 0 1 368.225 609.981)" fill="#230545"/>
<ellipse cx="1.2147" cy="1.43281" rx="1.2147" ry="1.43281" transform="matrix(-1 0 0 1 368.225 609.981)" fill="#230545"/>
<ellipse cx="1.2147" cy="1.43281" rx="1.2147" ry="1.43281" transform="matrix(-1 0 0 1 368.225 609.981)" fill="#230545"/>
<ellipse cx="1.2147" cy="1.43281" rx="1.2147" ry="1.43281" transform="matrix(-1 0 0 1 322.059 609.981)" fill="#230545"/>
<ellipse cx="1.2147" cy="1.43281" rx="1.2147" ry="1.43281" transform="matrix(-1 0 0 1 322.059 609.981)" fill="#230545"/>
<ellipse cx="1.2147" cy="1.43281" rx="1.2147" ry="1.43281" transform="matrix(-1 0 0 1 322.059 609.981)" fill="#230545"/>
<ellipse cx="1.2147" cy="1.43281" rx="1.2147" ry="1.43281" transform="matrix(-1 0 0 1 322.059 609.981)" fill="#230545"/>
<ellipse cx="1.2147" cy="1.43281" rx="1.2147" ry="1.43281" transform="matrix(-1 0 0 1 322.059 609.981)" fill="#230545"/>
<path d="M382.316 617.144L305.536 618.013V624.973L382.316 625.843V617.144Z" fill="#742D5B"/>
<ellipse cx="1.2147" cy="1.44987" rx="1.2147" ry="1.44987" transform="matrix(-1 0 0 1 368.225 620.043)" fill="#230545"/>
<ellipse cx="1.2147" cy="1.44987" rx="1.2147" ry="1.44987" transform="matrix(-1 0 0 1 368.225 620.043)" fill="#230545"/>
<ellipse cx="1.2147" cy="1.44987" rx="1.2147" ry="1.44987" transform="matrix(-1 0 0 1 368.225 620.043)" fill="#230545"/>
<ellipse cx="1.2147" cy="1.44987" rx="1.2147" ry="1.44987" transform="matrix(-1 0 0 1 368.225 620.043)" fill="#230545"/>
<ellipse cx="1.2147" cy="1.44987" rx="1.2147" ry="1.44987" transform="matrix(-1 0 0 1 368.225 620.043)" fill="#230545"/>
<ellipse cx="1.2147" cy="1.44987" rx="1.2147" ry="1.44987" transform="matrix(-1 0 0 1 322.059 620.043)" fill="#230545"/>
<ellipse cx="1.2147" cy="1.44987" rx="1.2147" ry="1.44987" transform="matrix(-1 0 0 1 322.059 620.043)" fill="#230545"/>
<ellipse cx="1.2147" cy="1.44987" rx="1.2147" ry="1.44987" transform="matrix(-1 0 0 1 322.059 620.043)" fill="#230545"/>
<ellipse cx="1.2147" cy="1.44987" rx="1.2147" ry="1.44987" transform="matrix(-1 0 0 1 322.059 620.043)" fill="#230545"/>
<ellipse cx="1.2147" cy="1.44987" rx="1.2147" ry="1.44987" transform="matrix(-1 0 0 1 322.059 620.043)" fill="#230545"/>
<path d="M382.316 627.872L305.536 627.002V635.702L382.316 635.122V627.872Z" fill="#742D5B"/>
<ellipse cx="1.21356" cy="1.44851" rx="1.21356" ry="1.44851" transform="matrix(-1 0 0 1 368.252 630.651)" fill="#230545"/>
<ellipse cx="1.21356" cy="1.44851" rx="1.21356" ry="1.44851" transform="matrix(-1 0 0 1 368.252 630.651)" fill="#230545"/>
<ellipse cx="1.21356" cy="1.44851" rx="1.21356" ry="1.44851" transform="matrix(-1 0 0 1 368.252 630.651)" fill="#230545"/>
<ellipse cx="1.21356" cy="1.44851" rx="1.21356" ry="1.44851" transform="matrix(-1 0 0 1 368.252 630.651)" fill="#230545"/>
<ellipse cx="1.21356" cy="1.44851" rx="1.21356" ry="1.44851" transform="matrix(-1 0 0 1 368.252 630.651)" fill="#230545"/>
<ellipse cx="1.21356" cy="1.44851" rx="1.21356" ry="1.44851" transform="matrix(-1 0 0 1 321.17 630.651)" fill="#230545"/>
<ellipse cx="1.21356" cy="1.44851" rx="1.21356" ry="1.44851" transform="matrix(-1 0 0 1 321.17 630.651)" fill="#230545"/>
<ellipse cx="1.21356" cy="1.44851" rx="1.21356" ry="1.44851" transform="matrix(-1 0 0 1 321.17 630.651)" fill="#230545"/>
<ellipse cx="1.21356" cy="1.44851" rx="1.21356" ry="1.44851" transform="matrix(-1 0 0 1 321.17 630.651)" fill="#230545"/>
<ellipse cx="1.21356" cy="1.44851" rx="1.21356" ry="1.44851" transform="matrix(-1 0 0 1 321.17 630.651)" fill="#230545"/>
<path d="M385.232 646.143L303.593 644.693L305.446 637.444H382.893L385.232 646.143Z" fill="#923258"/>
<path d="M385.232 647.882H303.593V644.692L385.232 646.142V647.882Z" fill="#742D5B"/>
<ellipse cx="367.41" cy="641.793" rx="1.29927" ry="1.44987" transform="rotate(180 367.41 641.793)" fill="#230545"/>
<ellipse cx="367.41" cy="641.793" rx="1.29927" ry="1.44987" transform="rotate(180 367.41 641.793)" fill="#230545"/>
<ellipse cx="367.41" cy="641.793" rx="1.29927" ry="1.44987" transform="rotate(180 367.41 641.793)" fill="#230545"/>
<ellipse cx="367.41" cy="641.793" rx="1.29927" ry="1.44987" transform="rotate(180 367.41 641.793)" fill="#230545"/>
<ellipse cx="367.41" cy="641.793" rx="1.29927" ry="1.44987" transform="rotate(180 367.41 641.793)" fill="#230545"/>
<ellipse cx="321.076" cy="641.793" rx="1.29927" ry="1.44987" transform="rotate(180 321.076 641.793)" fill="#230545"/>
<ellipse cx="321.076" cy="641.793" rx="1.29927" ry="1.44987" transform="rotate(180 321.076 641.793)" fill="#230545"/>
<ellipse cx="321.076" cy="641.793" rx="1.29927" ry="1.44987" transform="rotate(180 321.076 641.793)" fill="#230545"/>
<ellipse cx="321.076" cy="641.793" rx="1.29927" ry="1.44987" transform="rotate(180 321.076 641.793)" fill="#230545"/>
<ellipse cx="321.076" cy="641.793" rx="1.29927" ry="1.44987" transform="rotate(180 321.076 641.793)" fill="#230545"/>
<path d="M388.391 655.711L299.705 656.581L302.238 647.881H386.101L388.391 655.711Z" fill="#923258"/>
<path d="M388.635 658.32H299.706V656.58L388.392 655.42L388.635 658.32Z" fill="#742D5B"/>
<ellipse cx="369.732" cy="652.231" rx="1.4069" ry="1.44987" transform="rotate(180 369.732 652.231)" fill="#230545"/>
<ellipse cx="369.732" cy="652.231" rx="1.4069" ry="1.44987" transform="rotate(180 369.732 652.231)" fill="#230545"/>
<ellipse cx="369.732" cy="652.231" rx="1.4069" ry="1.44987" transform="rotate(180 369.732 652.231)" fill="#230545"/>
<ellipse cx="369.732" cy="652.231" rx="1.4069" ry="1.44987" transform="rotate(180 369.732 652.231)" fill="#230545"/>
<ellipse cx="369.732" cy="652.231" rx="1.4069" ry="1.44987" transform="rotate(180 369.732 652.231)" fill="#230545"/>
<ellipse cx="318.324" cy="652.231" rx="1.4069" ry="1.44987" transform="rotate(180 318.324 652.231)" fill="#230545"/>
<ellipse cx="318.324" cy="652.231" rx="1.4069" ry="1.44987" transform="rotate(180 318.324 652.231)" fill="#230545"/>
<ellipse cx="318.324" cy="652.231" rx="1.4069" ry="1.44987" transform="rotate(180 318.324 652.231)" fill="#230545"/>
<ellipse cx="318.324" cy="652.231" rx="1.4069" ry="1.44987" transform="rotate(180 318.324 652.231)" fill="#230545"/>
<ellipse cx="318.324" cy="652.231" rx="1.4069" ry="1.44987" transform="rotate(180 318.324 652.231)" fill="#230545"/>
<line y1="-2" x2="101.105" y2="-2" transform="matrix(-0.0295849 0.999562 0.99964 0.0268322 283.41 576.386)" stroke="#381263" stroke-width="4"/>
<path d="M283.84 546.962C282.263 545.3 279.614 545.3 278.037 546.962L249.854 576.662C247.435 579.211 249.242 583.416 252.755 583.416H309.122C312.635 583.416 314.442 579.211 312.024 576.662L283.84 546.962Z" fill="#FFE87B"/>
<path d="M283.84 612.553C282.263 614.215 279.614 614.215 278.037 612.553L249.854 582.853C247.435 580.304 249.242 576.099 252.755 576.099H309.122C312.635 576.099 314.442 580.304 312.024 582.853L283.84 612.553Z" fill="#FFE87B"/>
<ellipse cx="3.44382" cy="3.27957" rx="3.44382" ry="3.27957" transform="matrix(-1 0 0 1 286.842 557.449)" fill="#844C01"/>
<ellipse cx="4.99455" cy="7.71719" rx="4.99455" ry="7.71719" transform="matrix(-0.978569 -0.205917 -0.226028 0.974121 286.953 565.164)" fill="#844C01"/>
<path d="M282.119 575.068L278.487 576.51L282.905 586.028L285.857 584.154L282.119 575.068Z" fill="#844C01"/>
<path d="M282.646 582.793L285.856 584.155L285.901 592.936L282.412 592.936L282.646 582.793Z" fill="#844C01"/>
<rect width="3.86002" height="16.3358" transform="matrix(-0.973064 -0.230536 -0.252761 0.967529 279.943 576.94)" fill="#844C01"/>
<path d="M279.956 566.773L279.955 564.477L272.084 569.631L272.719 571.89L279.956 566.773Z" fill="#844C01"/>
<path d="M274.012 575.769L272.083 575.721L272.082 569.63L273.56 569.63L274.012 575.769Z" fill="#844C01"/>
<path d="M283.725 565.43L281.318 565.296L286.26 573.081L288.665 572.609L283.725 565.43Z" fill="#844C01"/>
<path d="M293.004 572.377L292.613 574.177L286.318 573.101L286.579 571.715L293.004 572.377Z" fill="#844C01"/>
<line y1="-0.5" x2="29.5185" y2="-0.5" transform="matrix(-1 0 0 1 294.713 595.868)" stroke="#844C01"/>
<line y1="-0.5" x2="7.87159" y2="-0.5" transform="matrix(-1 0 0 1 294.713 587.435)" stroke="#844C01"/>
<line y1="-0.5" x2="7.87159" y2="-0.5" transform="matrix(-1 0 0 1 272.082 587.435)" stroke="#844C01"/>
<line y1="-0.5" x2="3.9358" y2="-0.5" transform="matrix(-1 0 0 1 281.922 587.435)" stroke="#844C01"/>
<path d="M743.924 651.061L741.443 630.621H621.678V654.773L743.924 651.061Z" stroke="#381263" stroke-width="2"/>
<line y1="-1.5" x2="49.5102" y2="-1.5" transform="matrix(4.59007e-08 1 1 -4.16266e-08 711.568 629.668)" stroke="#381263" stroke-width="3"/>
<line y1="-1.5" x2="48.348" y2="-1.5" transform="matrix(0.1207 0.992689 0.993976 -0.109603 742.393 629.668)" stroke="#381263" stroke-width="3"/>
<line y1="-1.5" x2="49.5102" y2="-1.5" transform="matrix(4.59007e-08 1 1 -4.16266e-08 681.102 629.621)" stroke="#381263" stroke-width="3"/>
<line y1="-1.5" x2="49.6861" y2="-1.5" transform="matrix(-0.0695915 0.997576 0.998005 0.0631386 652.904 629.621)" stroke="#381263" stroke-width="3"/>
<line y1="-1.5" x2="49.5102" y2="-1.5" transform="matrix(4.59007e-08 1 1 -4.16266e-08 622.119 629.668)" stroke="#381263" stroke-width="3"/>
<line y1="-1" x2="31.3" y2="-1" transform="matrix(-1 0 0 1 742.844 644.319)" stroke="#381263" stroke-width="2"/>
<path d="M722.402 642.627C722.402 644.754 724.228 646.561 726.584 646.561C728.94 646.561 730.766 644.754 730.766 642.627C730.766 640.499 728.94 638.692 726.584 638.692C724.228 638.692 722.402 640.499 722.402 642.627Z" fill="#ED4550" stroke="#381263" stroke-width="2"/>
<line y1="-1" x2="29.1774" y2="-1" transform="matrix(-0.999802 -0.0198906 -0.0219258 0.99976 710.396 644.608)" stroke="#381263" stroke-width="2"/>
<path d="M690.783 642.626C690.783 644.754 692.609 646.561 694.965 646.561C697.321 646.561 699.146 644.754 699.146 642.626C699.146 640.499 697.321 638.692 694.965 638.692C692.609 638.692 690.783 640.499 690.783 642.626Z" fill="#ED4550" stroke="#381263" stroke-width="2"/>
<line y1="-1" x2="29.178" y2="-1" transform="matrix(-1 0 0 1 680.598 644.304)" stroke="#381263" stroke-width="2"/>
<path d="M660.982 642.611C660.982 644.739 662.808 646.546 665.164 646.546C667.52 646.546 669.346 644.739 669.346 642.611C669.346 640.484 667.52 638.677 665.164 638.677C662.808 638.677 660.982 640.484 660.982 642.611Z" fill="#ED4550" stroke="#381263" stroke-width="2"/>
<line y1="-1" x2="29.1771" y2="-1" transform="matrix(-0.999695 0.0246971 0.0272234 0.999629 651.264 644.462)" stroke="#381263" stroke-width="2"/>
<path d="M632.949 643.131C632.949 645.258 634.775 647.065 637.131 647.065C639.487 647.065 641.312 645.258 641.312 643.131C641.312 641.003 639.487 639.196 637.131 639.196C634.775 639.196 632.949 641.003 632.949 643.131Z" fill="#ED4550" stroke="#381263" stroke-width="2"/>
<path d="M117 741H282.696L292.52 749.378L130.015 752.637L117 741Z" fill="#F7E6C7"/>
<path d="M132.516 754.455H300.7L312.884 764.152L142.314 763.476L132.516 754.455Z" fill="#F7E6C7"/>
<path d="M153.23 776.691C150.628 774.216 152.352 769.832 155.942 769.792L317.749 767.987C318.697 767.977 319.618 768.303 320.347 768.908L324.712 772.528C327.595 774.919 325.904 779.607 322.158 779.607L157.887 779.599C156.861 779.599 155.875 779.205 155.131 778.498L153.23 776.691Z" fill="#F7E6C7"/>
<path d="M1426.95 737.674H1592.64L1602.47 746.052L1439.96 749.311L1426.95 737.674Z" fill="#F7E6C7"/>
<path d="M1442.46 751.128H1610.65L1622.83 760.826L1452.26 760.15L1442.46 751.128Z" fill="#F7E6C7"/>
<path d="M1463.18 773.364C1460.58 770.89 1462.3 766.506 1465.89 766.466L1627.7 764.661C1628.64 764.65 1629.56 764.977 1630.29 765.582L1634.66 769.202C1637.54 771.593 1635.85 776.281 1632.11 776.281L1467.83 776.273C1466.81 776.273 1465.82 775.879 1465.08 775.172L1463.18 773.364Z" fill="#F7E6C7"/>
</g>
</g>
<defs>
<clipPath id="clip0_245_1184">
<rect width="1527" height="922" fill="white"/>
</clipPath>
</defs>
</svg>
