<svg width="1957" height="852" viewBox="0 0 1957 852" fill="none" xmlns="http://www.w3.org/2000/svg">
<rect y="395" width="232" height="457" fill="#A5C8EB"/>
<rect x="57" y="308" width="46" height="87" fill="#A5C8EB"/>
<path d="M116 208L232 256.5V395H116V208Z" fill="#A5C8EB"/>
<rect x="232" y="552" width="473" height="300" fill="#A5C8EB"/>
<rect x="299" y="70" width="196" height="482" fill="#A5C8EB"/>
<rect x="373" width="86" height="70" fill="#A5C8EB"/>
<rect x="705" y="395" width="174" height="457" fill="#A5C8EB"/>
<path d="M738.5 369H841L879 395H705L738.5 369Z" fill="#A5C8EB"/>
<rect x="738" y="346" width="102" height="23" fill="#A5C8EB"/>
<rect x="748" y="216" width="83" height="130" fill="#A5C8EB"/>
<path d="M789 106L833.167 219.25H744.833L789 106Z" fill="#A5C8EB"/>
<rect x="889" y="181" width="249" height="671" fill="#A5C8EB"/>
<rect x="922" y="106" width="43" height="75" fill="#A5C8EB"/>
<rect x="965" y="163" width="105" height="18" fill="#A5C8EB"/>
<rect x="1174" y="52" width="173" height="800" fill="#A5C8EB"/>
<path d="M1347 290.5L1490 369V852H1347V290.5Z" fill="#A5C8EB"/>
<rect x="1579" y="290" width="231" height="562" fill="#A5C8EB"/>
<rect x="1603" y="221" width="207" height="69" fill="#A5C8EB"/>
<rect x="1629" y="129" width="160" height="92" fill="#A5C8EB"/>
<rect x="1653" y="93" width="105" height="36" fill="#A5C8EB"/>
<rect x="1198" y="31" width="114" height="21" fill="#A5C8EB"/>
<path d="M1734 46V93H1675L1734 46Z" fill="#A5C8EB"/>
<rect x="1810" y="520" width="147" height="332" fill="#A5C8EB"/>
<rect x="1905" y="433" width="52" height="87" fill="#A5C8EB"/>
<rect x="1916" y="404" width="15" height="29" fill="#A5C8EB"/>
</svg>
